<?xml version="1.0" encoding="iso-8859-1"?>
<!-- Generator: Adobe Illustrator 18.1.1, SVG Export Plug-In . SVG Version: 6.00 Build 0)  -->
<svg version="1.1" id="_x38_" xmlns="http://www.w3.org/2000/svg" xmlns:xlink="http://www.w3.org/1999/xlink" x="0px" y="0px"
	 viewBox="0 0 512 512" style="enable-background:new 0 0 512 512;" xml:space="preserve">
<g>
	<path style="fill:#595959;" d="M317.784,436.539c1.966-0.393,30.142-1.456,43.755-10.21c1.948,0-2.429,3.889-3.889,4.862
		c-1.458,0.973-25.767,7.295-31.602,7.781c-5.835,0.487-10.695,0.487-10.695,0.487S315.353,437.026,317.784,436.539z"/>
	<path style="fill:#595959;" d="M315.353,434.111c-4.959,0-6.32-1.946-2.915-2.433c3.4-0.487,31.113-7.777,35.975-9.724
		c4.864-1.942,22.849-5.831,24.796-6.804c1.944-0.973-11.67,5.348-15.072,6.318C354.734,422.44,317.784,434.111,315.353,434.111z"/>
	<path style="fill:#595959;" d="M177.52,450.638c1.458,1.946,2.188-0.487,2.431-1.214c0.243-0.728,1.214-7.777-1.701-10.697
		C176.792,438.24,177.52,450.638,177.52,450.638z"/>
	<path style="fill:#595959;" d="M356.192,160.999c-3.281,2.188-10.94,9.479-12.762,13.492c-1.824,4.009-2.19,4.009-4.741,3.647
		c-2.552-0.366-2.552-2.553,0-3.647c2.551-1.094,12.034-10.576,13.126-13.858c1.096-3.281,1.462-4.741,2.919-4.009
		C356.192,157.351,356.192,160.999,356.192,160.999z"/>
	<path style="fill:#595959;" d="M170.957,74.579c-0.854-0.319-1.641-2.371-2.918-3.282c-1.275-0.911-0.547-1.277,1.277-0.366
		C171.14,71.843,172.415,75.124,170.957,74.579z"/>
	<path style="fill:#595959;" d="M218.54,62.548c0.664-1.105,2.919-4.196,4.013-1.277c1.094,2.915,1.641,9.844,5.65,10.938
		c4.011,1.094,6.565,0,5.835,0.728c-0.728,0.732-5.652,2.554-8.204,0.732c-2.554-1.826-3.83-7.295-4.375-9.3
		c-0.547-2.005-0.183-1.277-1.641-0.728C218.359,64.186,217.995,63.458,218.54,62.548z"/>
	<path style="fill:#595959;" d="M226.565,63.275c-1.46-1.822-1.094-5.286,1.275-2.736c2.372,2.553,2.918,4.924,5.105,5.652
		c2.19,0.732-0.73,0.915-2.37,0C228.935,65.28,226.565,63.275,226.565,63.275z"/>
	<path style="fill:#595959;" d="M230.393,55.619c-1.405-2.11-3.1-6.384-1.277-4.375c1.824,2.005,4.377,4.92,6.199,6.197
		c1.822,1.277,0.183,2.188-0.366,2.188C234.403,59.628,231.121,56.712,230.393,55.619z"/>
	<path style="fill:#595959;" d="M219.819,43.038c1.641,0.183,9.297-0.366,12.945-0.183c3.645,0.183,4.739,2.371,5.286,5.107
		c0.547,2.733,0.364,6.014-0.547,5.835c-0.911-0.187-0.366-4.741-1.641-6.567c-1.277-1.822-4.011-3.647-7.476-3.099
		c-3.464,0.549-5.65,0.549-8.204,0.183C217.631,43.949,219.819,43.038,219.819,43.038z"/>
	<path style="fill:#595959;" d="M163.118,47.962c2.178-0.272,3.647,1.639,2.007,1.822c-1.643,0.183-0.73,1.643-2.37,1.094
		C161.111,50.333,161.66,48.145,163.118,47.962z"/>
	<path style="fill:#595959;" d="M170.044,43.038c-1.639-0.183-2.735-0.549-4.011-0.549c-1.275,0-2.186-1.822,1.277-1.456
		c3.466,0.366,4.375,1.094,4.56,1.822C172.051,43.583,170.044,43.038,170.044,43.038z"/>
	<path style="fill:#595959;" d="M213.437,40.484c2.225-1.67,2.917-2.005,4.739-2.005c1.824,0,0.549,1.46-0.728,1.822
		c-1.275,0.366-3.281,1.46-4.011,1.643C212.707,42.127,211.977,41.578,213.437,40.484z"/>
	<path style="fill:#595959;" d="M204.502,39.939c-1.822,0.911-1.639,1.094,0.366,1.277c2.007,0.183,3.83-3.83,7.476-5.469
		c3.645-1.643,5.469-0.549,7.11-1.277c1.643-0.732,2.735-2.737-1.458-2.371c-4.194,0.362-6.382,1.46-8.57,3.098
		C207.238,36.841,204.502,39.939,204.502,39.939z"/>
	<path style="fill:#595959;" d="M194.112,41.761c-2.007-0.183-3.098,1.643-0.911,2.005c2.186,0.366,6.014-4.375,7.84-6.563
		c1.822-2.188,3.826-2.916,5.286-4.192c1.458-1.277,1.458-3.83-0.913-2.554c-2.369,1.277-4.011,3.103-5.467,5.29
		C198.488,37.935,194.112,41.761,194.112,41.761z"/>
	<path style="fill:#595959;" d="M185.726,42.31c0.911,1.273,1.641,3.099,2.368,1.639c0.73-1.46-0.728-4.375-4.192-6.929
		c-3.464-2.55-7.295-3.46-7.659-1.273c-0.364,2.188,1.277,2.55,1.277,2.55s-0.181-3.647,2.553-1.822
		C182.806,38.297,185.726,42.31,185.726,42.31z"/>
	<path style="fill:#595959;" d="M183.538,47.047c-1.174-1.463-3.83-4.375-6.563-6.38c-2.734-2.005-4.194-1.822-3.1,0
		c1.094,1.822,3.281,5.107,6.016,6.38C182.625,48.324,184.268,47.962,183.538,47.047z"/>
	<path style="fill:#595959;" d="M152.36,62.909c-1.187-2.289-2.189-5.286-0.728-4.192c1.458,1.094,2.369,4.924,4.92,6.929
		c2.553,2.005,4.013,1.639,4.194,2.188c0.183,0.545,0.73,1.822-1.458,1.277C157.102,68.562,154.912,67.834,152.36,62.909z"/>
	<path style="fill:#595959;" d="M161.843,60.36c-2.528-0.362-5.29-3.83-7.112-6.201c-1.824-2.371-2.188-2.554-2.736-2.188
		c-0.545,0.366-1.639,1.46,0,2.737c1.641,1.277,4.013,3.281,5.288,5.103c1.277,1.822,2.007,2.554,3.647,2.737
		C162.571,62.727,164.394,60.722,161.843,60.36z"/>
	<path style="fill:#595959;" d="M164.028,36.109c0.183-1.639,0.73-6.38-1.094-10.027c-1.824-3.647-3.828-5.652-2.733-7.291
		c1.092-1.643,0.728-3.647,3.645-1.643c2.918,2.004,4.558,4.924,6.563,5.107c2.005,0.179,5.65-1.643,5.469-2.371
		c-0.181-0.732,3.098-0.183,3.464-1.46c0.364-1.277,2.735-3.647-3.283-3.826c-6.016-0.183-9.114,0.911-13.855-0.915
		c-4.739-1.822-5.833,0.915-4.922,3.83c0.913,2.916,2.551,10.21,2.007,12.215c-0.549,2.005,2.554,4.558,2.916,6.018
		C162.571,37.203,164.028,36.109,164.028,36.109z"/>
	<path style="fill:#595959;" d="M192.652,64.735c1.623,1.946,4.375,4.92,5.835,5.103c1.46,0.183,1.092,2.736-1.641,1.094
		c-2.734-1.639-2.734-1.822-4.194-4.009C191.193,64.735,191.742,63.641,192.652,64.735z"/>
	<path style="fill:#595959;" d="M213.984,71.298c-0.808-1.269-0.183-2.553,1.822,0.183c2.007,2.733,3.101,5.652,4.924,7.291
		c1.824,1.643,2.917,1.46,4.741,1.46c1.822,0,4.009,1.456,2.005,1.639c-2.005,0.183-4.194,0.366-6.746-1.456
		C218.176,78.589,215.261,73.303,213.984,71.298z"/>
	<path style="fill:#595959;" d="M208.879,74.031c0,0.915,1.641,6.384,6.199,8.023c2.188,1.094,1.096,2.188-1.277,1.277
		c-2.371-0.911-2.371-0.911-2.371-0.911s0.183,3.099,1.277,4.375c1.094,1.277-1.277,0.545-2.37-1.822
		c-1.092-2.371-0.181-4.375-0.73-4.924c-0.545-0.549-1.275-2.733-1.822-5.103C207.238,72.575,208.879,73.303,208.879,74.031z"/>
	<path style="fill:#595959;" d="M180.255,69.11c0-1.46,0.183-1.643,1.094-1.643c0.911,0,1.277,1.643,0.73,2.737
		c-0.547,1.094-1.824,4.009-2.552,6.38c-0.73,2.371-0.549,3.647-2.188,3.099c-1.641-0.545-2.007-2.188-0.547-4.192
		c1.458-2.005,3.099-3.647,3.099-4.558C179.891,70.021,180.255,69.11,180.255,69.11z"/>
	<path style="fill:#595959;" d="M171.321,63.458c2.007,1.456,3.83,2.371,4.558,2.371c0.728,0-0.547,1.639-3.098,0.911
		c-2.553-0.728-2.736-1.277-3.647-2.919C168.223,62.182,171.321,63.458,171.321,63.458z"/>
	<path style="fill:#595959;" d="M178.797,57.806c-1.516-1.012-5.105-2.371-6.565-1.822c-1.456,0.545,0.183,1.456-1.092,2.005
		c-1.277,0.545-1.641,0-1.824-1.277c-0.183-1.277,1.094-2.736,4.011-2.915c2.915-0.187,5.65,1.639,6.746,2.55
		C181.166,57.257,179.891,58.534,178.797,57.806z"/>
	<path style="fill:#595959;" d="M209.607,54.708c-1.822-1.098-1.822-4.013-4.192-3.282c-2.369,0.728-3.283,1.639-2.735,2.733
		c0.549,1.094-0.549,3.098-1.458,3.647c-0.911,0.545,1.641,4.192,4.01,3.465c2.372-0.732,3.647-2.188,3.647-2.188
		s0.728,2.188-1.275,3.464c-2.007,1.273-2.007,2.55-4.194,0.728c-2.188-1.822-3.099-4.924-4.558-5.469
		c-1.458-0.549-3.647-1.094-2.917-2.554c0.73-1.456,2.005-1.277,3.281-2.188c1.277-0.911,4.741-2.916,5.835-3.83
		c1.096-0.911,2.188-0.179,3.463,1.643c1.279,1.826,0.185,0.549,1.279,1.826C210.885,53.976,209.607,54.708,209.607,54.708z"/>
	<path style="fill:#595959;" d="M192.106,28.087c-0.183-0.728,0.547-4.737,1.277-5.103c0.73-0.366,6.016-5.103,7.11-6.929
		c1.094-1.822,2.371-6.38,4.558-7.84c2.188-1.46,4.556-3.464,2.188-3.464c-2.371,0-4.558,0.549-7.11,2.37
		c-2.552,1.826-5.288,6.018-8.387,8.389c-3.101,2.371-5.288,5.103-7.659,5.103c-2.368,0-2.368,1.277-0.545,2.005
		c1.82,0.732,4.739,2.554,6.014,4.375C190.831,28.818,192.106,28.087,192.106,28.087z"/>
	<path style="fill:#595959;" d="M253.182,14.599c-2.188-3.468-7.474-8.933-15.132-10.759c-7.657-1.822-10.757-0.545-14.222-0.911
		c-3.464-0.366-5.103-2.37-3.281-2.188c1.824,0.183,6.929-0.549,12.032-0.732c5.107-0.179,15.315,2.192,23.34,12.581
		C257.557,14.778,253.182,14.599,253.182,14.599z"/>
	<path style="fill:#595959;" d="M254.276,43.766c-1.327,1.448-1.824,4.558-3.464,2.736c-1.639-1.822-0.366-6.201,0.364-8.75
		c0.732-2.554,2.919-4.375,3.466-2.554C255.189,37.02,258.288,39.39,254.276,43.766z"/>
	<path style="fill:#595959;" d="M233.494,26.993c1.641,0.732,3.461,2.371,4.739,2.554c1.275,0.183,3.645,0.549,4.558-0.728
		c0.909-1.277,3.828-3.83,6.197-5.652c2.371-1.826,7.11-4.558,8.569-7.295c1.46-2.733,2.005-3.464,3.646-3.281
		c1.641,0.183,2.189,2.009,1.096,6.018c-1.096,4.009-0.364,6.746,1.458,7.657c1.824,0.911,2.007,0.366,2.918,5.107
		c0.911,4.737,0.728,10.389-0.366,12.211c-1.092,1.826-5.286,5.652-6.197,7.295c-0.911,1.643-0.911,2.188-1.824,3.83
		c-0.913,1.639,0.364,3.826,1.824,1.822c1.458-2.005,0.73-2.005,1.092-3.826c0.366-1.826,3.83-4.379,5.835-6.201
		c2.007-1.822,2.918-1.822,2.918-6.018c0-4.192,0.913-7.474,0.545-9.844c-0.364-2.371-2.552-5.469-3.645-6.746
		c-1.092-1.277-1.092-6.014-0.73-8.202c0.366-2.191,1.096-6.746-2.733-6.746c-3.83,0-4.922,1.639-6.018,2.55
		c-1.094,0.911-3.098,3.464-4.193,4.558c-1.094,1.094-2.736,1.277-6.199,4.558c-3.462,3.281-5.286,5.286-7.838,5.835
		c-2.554,0.545-3.283,0.545-4.377,0.183C233.675,26.265,233.494,26.993,233.494,26.993z"/>
	<path style="fill:#595959;" d="M238.414,95.728c-0.364-2.915-0.364-6.929,0.732-9.482c1.092-2.55,5.467-4.737,5.831-5.831
		c0.366-1.094,2.554,2.916,1.826,4.375c-0.73,1.456-6.565,5.835-6.565,12.032c0,6.197-0.364,8.751-3.283,9.482
		c-2.916,0.728-6.197,3.281-8.385,5.469c-2.188,2.188-5.105,7.291-9.116,6.197c-4.011-1.094-5.103-5.469-7.291-5.469
		c-2.188,0-2.918,5.103-5.471,6.929c-2.552,1.822-10.574,3.647-13.126,2.55c-2.552-1.09-4.741-5.831-9.117-5.831
		s-2.189-4.375,5.833,0c3.344,1.822,2.552,2.188,6.199,2.554c3.647,0.362,6.199,1.456,7.659-1.098
		c1.458-2.55,4.373-6.197,5.835-8.385c1.456-2.188,5.831-2.553,6.199,0.728c0.364,3.281,2.916,5.835,5.103,5.107
		c2.188-0.732,4.739-5.107,8.023-6.201c3.279-1.094,8.021-4.737,8.751-8.023C238.78,97.55,238.414,95.728,238.414,95.728z"/>
	<path style="fill:#595959;" d="M177.52,91.353c-3.116,0-2.918-5.107-2.552-6.197c0.364-1.098,1.824,2.915,2.915,4.009
		C178.978,90.259,178.614,91.353,177.52,91.353z"/>
	<path style="fill:#595959;" d="M185.541,89.165c-3.574-1.024-5.103-1.46-3.281-3.647c1.824-2.188,4.377-2.55,4.741-1.094
		C187.367,85.884,188.094,89.893,185.541,89.165z"/>
	<path style="fill:#595959;" d="M194.657,85.518c-2.186,0.366-1.824,1.822,0.73,1.822c2.552,0,6.563-2.55,9.115-1.094
		c2.553,1.46,2.189,6.201,2.189,8.389c0,2.188,2.553,3.647,2.188,1.822c-0.366-1.822,1.096-5.831-0.73-8.751
		c-1.822-2.916-2.188-5.103-6.927-4.375C196.481,84.058,194.657,85.518,194.657,85.518z"/>
	<path style="fill:#595959;" d="M193.201,113.229c-2.448-1.631-0.368-4.375,1.456-5.831c1.824-1.46,4.011-9.482,3.282-12.398
		c-0.728-2.92,1.826-2.92,2.189,0.728c0.364,3.647,1.094,11.67-1.096,14.586C196.847,113.229,196.481,115.416,193.201,113.229z"/>
	<path style="fill:#595959;" d="M168.04,90.625c3.281,1.822,4.011,2.915,3.645,6.197c-0.364,3.282,1.46,9.117,10.94,6.563
		c5.105-2.188,5.105-2.188,6.563-2.916c1.46-0.728,1.46-2.188,2.917-2.919c1.46-0.728,1.824,0.732,0.366,2.554
		c-1.458,1.822-2.919,2.554-4.377,2.916c-1.458,0.366-2.188,1.826-4.739,2.554c-2.552,0.732-2.19,1.46-6.199,1.094
		c-4.011-0.362-7.657-0.728-8.751-4.741c-1.096-4.009-0.366-6.563-0.73-8.019C167.31,92.446,168.04,90.625,168.04,90.625z"/>
	<path style="fill:#595959;" d="M301.131,78.589c1.094-1.822,0.366-4.009-0.364-5.835c-0.728-1.822,1.824,0,5.105,2.553
		c3.281,2.554,2.552,5.469,4.01,6.929c1.46,1.46,1.46,2.553-0.728,2.188c-2.188-0.366-5.469-0.366-6.929,1.094
		c-1.458,1.46-2.552,3.647-4.009,2.553c-1.46-1.094-3.281-3.282-4.375-2.553c-1.096,0.728-4.377,5.835-7.295,7.295
		c-2.915,1.456-8.021,6.563-14.586,22.242c-6.563,15.679-6.927,21.51-6.563,22.97c0.366,1.46-2.553,5.107-3.281,3.282
		c-0.73-1.822-1.094-6.563,2.188-14.22c3.281-7.657,14.586-30.265,17.503-33.18c2.918-2.919,6.563-7.661,10.208-9.482
		c3.647-1.822,4.741-2.553,6.565-3.281C300.403,80.414,301.131,78.589,301.131,78.589z"/>
	<path style="fill:#595959;" d="M156.008,151.882c2.098-2.273,6.927-11.67,8.021-13.857c1.096-2.188,8.023-13.858,8.023-16.045
		c0-2.184,4.009-6.563,5.833-8.385c1.824-1.822,4.011,1.094,3.281,2.916c-0.728,1.826-2.552,10.21-2.188,11.304
		c0.366,1.094-2.552-0.362-5.103,2.188c-2.554,2.553-5.469,10.942-5.469,12.398c0,1.46-2.919,4.741-5.835,8.023
		c-2.918,3.281-7.659,6.201-7.659,8.023c0,1.822-6.561,13.126-10.574,16.045c-4.009,2.916-20.785,10.572-23.336,12.032
		c-2.552,1.46-4.741,1.094-9.481,1.094c-4.739,0-9.48,2.188-17.503,3.647c-8.021,1.456-8.385,1.456-13.126-1.46
		c-4.741-2.919-5.835-6.929-2.918-5.103c2.918,1.822,8.023,2.916,11.306,3.281c3.28,0.362,17.135-1.098,18.229-1.46
		c1.096-0.366,6.199-1.822,8.388-1.822c2.186,0,7.655-2.191,9.115-2.919c1.458-0.728,13.126-6.197,16.043-8.023
		c2.917-1.822,3.647-4.01,4.741-5.469C146.891,166.834,151.632,156.624,156.008,151.882z"/>
	<path style="fill:#595959;" d="M14.894,168.29c1.458,0,2.552-1.094,4.739-1.456c2.188-0.366,0.73,2.184-1.092,2.549
		c-1.826,0.366-5.835,2.188-6.929,3.281c-1.094,1.094-7.591-0.942-5.471-1.094C11.246,171.209,14.894,168.29,14.894,168.29z"/>
	<path style="fill:#595959;" d="M20.363,172.299c0.73-3.281,2.916-3.281,2.916-1.456c0,1.822-4.737,8.751-9.481,10.938
		c-4.739,2.188-9.114-1.822-7.657-2.188c4.741,1.094,8.389,0.366,10.21-1.456C18.175,176.312,20.363,172.299,20.363,172.299z"/>
	<path style="fill:#595959;" d="M33.125,189.804c-2.186-2.188-4.375-7.657-1.824-5.469c2.553,2.188,4.011,2.916,5.105,4.009
		C37.502,189.438,33.125,189.804,33.125,189.804z"/>
	<path style="fill:#595959;" d="M25.832,167.196c0-1.46,4.011-0.362,5.469,0.366c1.46,0.728-1.822,5.835-1.822,5.835
		s-2.917,1.822-2.917,4.375c0,2.55-1.096,7.657-1.824,5.103c-0.728-2.554,0-6.929,0.366-8.023
		C25.466,173.759,25.832,167.196,25.832,167.196z"/>
	<path style="fill:#595959;" d="M49.168,174.125c-1.824,0-5.833-1.46-9.844-0.366c-4.011,1.094-4.741,1.094-9.844-0.362
		c-5.107-1.46,2.552,6.563,6.927,8.023c4.375,1.456,6.563,2.55,8.387,7.291c1.824,4.741,6.929,8.751,7.659,6.929
		c0.728-1.826-2.188-4.013-3.647-6.563c-1.46-2.553-2.188-8.023-5.835-8.389c-3.646-0.366-8.751-3.281-10.208-4.375
		c-1.46-1.094,6.199-1.46,10.208-0.728C46.98,176.312,49.168,174.125,49.168,174.125z"/>
	<path style="fill:#595959;" d="M44.429,169.749c-2.624-2.102-8.023-9.482-8.023-9.482s-2.916-0.362-4.739,0.732
		c-1.824,1.094-8.389-1.826-8.389-1.826s0,3.647,3.647,4.375c3.645,0.732,7.657-2.55,9.117-0.728
		c1.46,1.822,4.739,8.751,5.835,9.844C42.969,173.759,46.25,171.209,44.429,169.749z"/>
	<path style="fill:#595959;" d="M43.699,156.624c1.822,0.728-0.364,3.643-0.364,3.643s-1.458-1.094-4.375-2.916
		c-2.917-1.822-5.105-1.822-6.929,0c-1.824,1.822-9.48,6.197-14.586,1.094c-3.647-3.281,0.366-2.916,2.188-1.822
		c1.824,1.09,4.011,1.09,6.929,0.362c2.917-0.728,7.293-3.647,9.115-4.009C37.502,152.61,43.699,156.624,43.699,156.624z"/>
	<path style="fill:#595959;" d="M22.184,188.344c1.46,1.826,2.188,8.754,5.471,8.754c3.283,0,11.304,4.371,15.679,10.938
		c4.377,6.563,7.293,8.75,13.492,9.116c6.199,0.362,8.021,0.728,8.021-0.366c0-1.094,2.406-3.188,1.094-3.281
		c-5.103-0.366-6.563,0-9.114,0c-2.552,0-5.105-2.188-5.105-4.013c0-1.822,0-3.643-7.293-7.656
		c-7.293-4.009-14.222-5.469-14.586-7.291c-0.364-1.826-3.281-6.201-6.929-7.66C19.269,185.429,22.184,188.344,22.184,188.344z"/>
	<path style="fill:#595959;" d="M57.918,200.742c2.554,0,13.494,5.107,17.505,8.023c8.385,2.554,8.385,3.282,6.563,3.282
		c-1.824,0-6.929,0-6.929,0s-4.009-0.728-5.833-0.366c-1.824,0.366,3.645-2.188,3.645-2.188s-5.469-3.281-9.116-5.103
		C60.108,202.568,57.918,200.742,57.918,200.742z"/>
	<path style="fill:#595959;" d="M61.932,193.085c1.458,1.46,11.668,8.751,15.679,9.116c-0.728,1.46-8.387-0.366-11.67-2.553
		c-3.282-2.188-4.741-3.281-5.833-5.103C59.014,192.719,61.932,193.085,61.932,193.085z"/>
	<path style="fill:#595959;" d="M70.318,190.532c-5.308-3.538-6.565-9.479-7.293-13.492c-0.732-4.009-0.366-6.925-3.283-8.384
		c-2.916-1.46-6.927-4.741-10.208-8.023c-3.283-3.281-1.822-0.366,0,2.188c1.824,2.553,5.103,5.107,7.657,8.389
		c2.552,3.281,1.094,6.929,2.552,9.844c1.458,2.915,2.552,7.291,6.199,9.844C69.589,193.451,72.506,191.992,70.318,190.532z"/>
	<path style="fill:#595959;" d="M275.607,186.885c-2.552-1.822,0.728-4.737,2.188-5.831c4.011-4.013,8.751-8.755,10.574-14.22
		c1.824-4.379,2.188-9.483,2.918-14.224c0.364-2.916,0.728-8.751-0.73-11.304"/>
	<path style="fill:#595959;" d="M278.525,168.29c1.094-5.103,3.281-10.21,5.105-15.313c2.188-6.563,2.552-12.764,2.552-19.693"/>
	<path style="fill:#595959;" d="M243.521,157.351c0,0-3.284,7.291-1.096,9.117c2.188,1.822,1.096-0.366,2.188,1.822
		c1.096,2.188,0,7.295-0.73,9.116c-0.728,1.822-0.728,9.117,1.46,8.751c2.188-0.366,0.73-6.563,2.918-6.929
		c2.186-0.362,10.21,7.295,10.94,8.389c0.728,1.094,0.362,3.647,2.552,4.741c2.186,1.094,5.469-1.094,5.469-1.094
		s1.824-2.188,3.647-2.188c1.824,0,4.739,1.094,5.833,2.916c1.094,1.822,9.48,12.76,20.055,12.76
		c5.469,4.379,5.469,6.929,5.469,4.379c0-2.553-2.918-6.929-2.918-6.929s2.918-1.46,4.741-1.822c1.824-0.366,0.73-1.094-0.73-2.191
		c-1.456-1.09-1.094-1.09,0.73-2.55c1.824-1.46,3.647-1.094,2.188-3.647c-1.458-2.554-2.188-4.375-2.918-2.554
		c-0.728,1.826-2.188,4.376-4.739,6.567c-2.556,2.184-2.556,5.465-1.458,6.197c1.094,0.728,0.364,4.009-8.023-2.553
		c-8.387-6.563-10.938-9.479-12.764-11.666c-1.82-2.191-4.009-4.013-5.467-2.919c-1.462,1.094-4.743,2.919-6.565,1.822
		c-1.822-1.094-4.741-5.831-7.657-7.657c-2.919-1.822-5.835-2.55-6.201-4.737c-0.362-2.191-0.728-8.388-0.728-8.388
		s5.835,2.188,5.835-2.554c0-4.737-3.281-8.385-3.645-6.563c-0.364,1.826-1.096,4.376-2.189,4.741
		c-1.094,0.366-1.458-1.46-1.458-3.282C248.26,156.624,243.521,157.351,243.521,157.351z"/>
	<path style="fill:#595959;" d="M204.502,174.49c-0.362-3.647,1.096-8.023,1.826-5.107c0.728,2.916,1.458,19.693,2.551,20.786
		c1.096,1.094,6.563-2.919,6.927-4.741c0.368-1.826,2.92-2.188,2.92-2.188l1.822-0.732c0,0,8.389-2.915,10.21-2.915
		c-1.094-5.103-1.458-6.563,1.094-10.576c2.552-4.009,0.364-9.479,0.364-9.479s5.835,2.553,5.471,6.929
		c-0.366,4.375-5.107,6.563-3.647,9.116c1.46,2.553,2.188-1.094,3.647-1.094c1.46,0,2.916,3.647,1.094,5.103
		c-1.826,1.46-6.201,3.647-8.023,3.647c-1.822,0-4.741-0.366-5.835,1.094c-1.094,1.456-4.739,4.741-8.021,7.291
		c-3.28,2.554-5.837,3.282-5.471,5.107c0.366,1.822,0.366,4.375-1.456,3.282c-1.826-1.094-6.565-5.107-6.201-7.295
		C204.14,190.532,204.502,174.49,204.502,174.49z"/>
	<path style="fill:#595959;" d="M196.847,154.432c1.822,4.013-9.116,29.537,3.281,38.287c1.094,2.188-0.73,2.92-2.552,1.46
		c-1.824-1.46-7.295-10.576-5.835-17.867c1.46-7.295,4.011-16.407,3.645-18.961C195.023,154.798,196.847,154.432,196.847,154.432z"
		/>
	<path style="fill:#595959;" d="M189.188,146.047c0.963-1.549-1.094-5.469,0.73-5.469c1.824,0,2.553-1.094,4.377-2.915
		c1.822-1.826,2.916,1.822,1.092,4.009c-1.822,2.188-15.679,22.242-7.293,42.663c0.366,1.822-3.645,1.094-4.739-2.553
		C182.259,178.138,178.614,167.928,189.188,146.047z"/>
	<path style="fill:#595959;" d="M261.752,129.64c1.092,0.362,6.565,5.469,13.856,4.376c7.291-1.094,7.657,4.375,7.657,5.835
		c0,1.456-4.739,5.469-8.749,8.384c-4.015,2.916-7.295,3.647-8.39,2.916c-1.092-0.728,0.366-3.643,1.824-3.643
		c1.458,0,4.011-1.46,5.471-2.554c1.458-1.094,2.916-3.647,4.011-3.647c1.094,0,2.188-1.094,2.188-2.188
		c0-1.094,1.824-3.647-2.918-2.915C271.96,136.931,264.669,134.016,261.752,129.64z"/>
	<path style="fill:#595959;" d="M313.895,91.353c-1.096-2.916-2.188-6.929,1.094-3.282c3.281,3.647,8.385,10.21,17.501,17.501
		c9.116,7.295,10.576,17.867,10.94,20.42c0.364,2.553-2.552,2.188-1.094,4.009c1.458,1.826,1.094,3.647,1.094,5.469
		c0,1.826-2.552,16.045-2.552,17.139c0,1.094-3.283,4.013-5.107,5.469c-1.824,1.46-5.833,10.21-8.023,17.139
		c-2.186,6.929-3.643,9.482-4.009,13.126c-0.366,3.647-2.554,6.201-3.645,7.295c-1.096,1.094-2.19,4.375-2.552,1.46
		c-0.366-2.919-0.73-5.473,0.362-6.929c1.094-1.46,6.201-12.032,7.293-16.411c1.094-4.376,4.011-13.854,6.929-16.773
		c2.917-2.915,4.377-5.103,4.741-6.197c0.364-1.094,2.918-18.233,2.918-19.693c0-1.456,0.728-2.55-0.366-4.375
		c-1.094-1.822-2.188-4.375-2.188-4.375s-1.094-8.023-4.377-10.938c-3.281-2.916-8.749-6.563-11.668-9.482
		C318.27,99.009,313.895,91.353,313.895,91.353z"/>
	<path style="fill:#595959;" d="M276.701,62.182c-1.458,0.366-3.281-5.469-2.186-9.479c1.092-4.013,2.552-5.473,4.009-2.553
		c1.458,2.916,7.657,12.398,12.762,14.948c5.105,2.553,6.929,9.848,5.105,11.67c-1.824,1.822-6.199-0.366-8.023,0.366
		c-1.824,0.728-4.011,2.188-5.471,4.376c-1.456,2.188-8.383,5.469-8.75,6.563c-0.364,1.094-10.938,12.76-20.421,49.226
		c-0.728,6.563-1.456,12.032-2.552,14.586c-1.092,2.55-2.188,2.916-3.281,2.916c-1.092,0-2.918-1.094-2.552-2.55
		c0.366-1.46-1.094-1.826-1.094-1.826c-1.094,1.826-2.552,2.188-1.094,3.647c1.458,1.46,10.94,2.915,14.585,1.822
		c3.646-1.094,2.188-5.103,2.188-5.103s-1.824,1.094-1.824,0c0-1.094-1.094-5.107-0.364-7.295c0.73-2.188,3.281,5.835,5.103,7.295
		c1.826,1.46,2.919,4.375,1.094,6.197c-1.822,1.826-5.103,5.107-7.291,4.376c-2.188-0.728-3.282-2.55-5.103-2.55
		c-1.826,0-6.567,0-7.661,0c-1.092,0-7.291-2.188-6.929-5.473c0.366-3.281,1.826-4.737,4.377-6.563
		c2.552-1.822,8.023-5.469,7.657-8.385c-0.364-2.92,12.398-35.372,15.315-41.935c2.918-6.563,7.293-11.3,10.94-13.126
		c3.645-1.822,8.021-7.291,9.846-8.385c1.82-1.094,7.291-3.285,3.643-5.107C285.09,68.017,276.701,62.182,276.701,62.182z"/>
	<path style="fill:#595959;" d="M90.547,220.695c-3.385-0.446-7.409-1.006-11.579-1.072c-4.222-0.116-8.645-0.216-12.655-0.779
		c-4.011-0.549-6.746-1.464-8.281-2.129c-1.536-0.688-1.937-1.037-1.367-0.856c1.165,0.339,3.611,0.436,9.46,1.162
		c5.889,0.664,10.68,0.486,13.48,0.438c2.813-0.042,1.668,0.18,9.971,1.129c4.136,0.481,6.561,0.812,7.7,1.099
		c1.133,0.287,0.946,0.583-0.262,0.669C94.609,220.534,90.545,220.701,90.547,220.695z"/>
	<path style="fill:#595959;" d="M96.198,222.633c-6.061,1.42-14.866,3.421-22.449,2.041c-1.876-0.368-3.459-0.998-4.63-1.794
		c-1.183-0.781-1.888-1.753-2.228-2.502c-0.354-0.758-0.383-1.302-0.385-1.553c0-0.251,0.056-0.239,0.142,0.025
		c0.344,1.058,1.895,3.065,7.063,3.998c5.251,0.884,9.636,0.055,12.077-0.382c1.236-0.252,1.595-0.263,2.577-0.344
		c0.982-0.08,2.597-0.24,6.279-1.14c7.324-1.964,8.996-1.6,6.966-0.726C99.586,221.096,96.208,222.646,96.198,222.633z"/>
	<path style="fill:#595959;" d="M125.838,221.059c-1.981,1-4.187,2.022-6.508,3.073l-3.55,1.617
		c-1.161,0.551-2.478,1.168-3.78,1.641c-5.243,1.984-10.928,2.965-16.082,3.485c-2.583,0.242-5.041,0.154-6.854-0.603
		c-0.953-0.321-1.799-0.895-2.327-1.563c-0.526-0.673-0.763-1.341-0.913-1.878c-0.489-2.154-0.382-2.788-0.201-2.059
		c0.107,0.37,0.278,0.825,0.545,1.395c0.274,0.557,0.627,1.275,1.296,1.87c0.671,0.619,1.665,0.905,3.011,1.141
		c1.282,0.202,2.873,0.144,4.747-0.033c7.606-0.804,13.505-2.559,16.666-4.052c1.567-0.71,2.026-0.934,3.363-1.442
		c1.306-0.539,3.514-1.298,8.301-3.649c4.769-2.377,7.311-4.159,8.533-4.975c1.201-0.837,1.288-0.463,0.228,0.709
		C130.21,218.087,125.838,221.077,125.838,221.059z"/>
	<path style="fill:#595959;" d="M146.527,213.506c1.458,3.281-20.784,12.398-24.066,12.764"/>
	<path style="fill:#595959;" d="M385.727,228.819c-2.917-0.728-1.094-3.282,0.73-2.188c1.824,1.094,4.009,2.188,6.201,2.553
		c2.184,0.366,5.467,0.728,5.467,0.728s4.011,0.728,5.469,1.094c1.46,0.366,6.929,0.732,8.387,2.916
		c1.458,2.191,10.94,9.12,11.668,12.402c0.732,3.281,2.553,6.563,3.647,7.657c1.094,1.094,10.94,12.032,13.128,13.492
		c2.186,1.456,0.728,4.737-2.554,1.094c-3.281-3.647-12.762-13.13-14.949-16.045c-2.188-2.916-8.023-14.22-9.114-14.952
		c-1.098-0.728-1.826,0-3.284-1.456c-1.458-1.46-2.551-2.92-4.011-2.92c-1.458,0-6.563-1.456-6.563-1.456s-3.647,0.728-6.563-0.366
		C390.466,230.279,385.727,228.819,385.727,228.819z"/>
	<path style="fill:#595959;" d="M337.961,204.751c-1.288-1.285-2.917-5.831,0-2.915c2.918,2.915,15.315,12.398,20.783,12.398
		c5.471,0,19.693-6.197,24.066-7.291c3.281,0,4.375,0.728,1.094,1.822c-3.281,1.094-13.492,4.375-16.407,5.469
		c-2.918,1.094-8.023,1.094-4.741,2.919c3.283,1.822,13.13,6.197,14.951,6.197c1.822,0,1.822,2.188-0.73,1.822
		c-2.554-0.362-16.775-6.563-20.784-8.385C352.181,214.962,344.888,211.68,337.961,204.751z"/>
	<path style="fill:#595959;" d="M395.937,193.813c-2.19-2.916-3.647-8.751-0.364-6.563c3.281,2.188,10.21,21.514,11.666,23.702
		c1.46,2.188,2.917,2.919,2.917,4.009c0,1.094-1.092,4.013,0,5.473c1.094,1.456,1.46,5.103,3.282,7.657
		c1.824,2.55-2.916-1.094-4.739-6.201c-1.824-5.103-2.554-7.291-3.282-9.844C404.688,209.492,395.937,193.813,395.937,193.813z"/>
	<path style="fill:#595959;" d="M370.777,142.038c0.364,1.094,1.46,7.291,4.739,9.479c3.283,2.188,8.023,9.116,7.659,11.304
		c-0.366,2.188-3.281,7.295-6.199,10.21c-2.918,2.916-8.387,8.389-10.21,9.479c-1.824,1.094,1.458,2.553,3.283,0.366
		c1.822-2.188,9.479-8.023,12.398-9.116c2.916-1.094,5.467,2.188,6.197,5.835c2.918-5.469,1.458-11.304,0.366-12.76
		c-1.096-1.46-1.096-4.741-1.096-6.201c0-1.46-1.094-3.647-4.375-7.295c-3.281-3.644-5.833-5.469-8.387-8.385
		C372.601,142.038,370.777,142.038,370.777,142.038z"/>
	<path style="fill:#595959;" d="M357.65,153.338c2.917-1.09,5.837-5.469,4.741-6.925c-1.096-1.46-6.563-8.023-6.199-15.317
		c5.469,4.375,6.563,8.023,10.21,11.304c3.647,3.282,6.199,8.751,2.915,9.116c-3.28,0.366-6.164,3.515-8.023,5.107
		C356.192,160.999,356.556,152.976,357.65,153.338z"/>
	<path style="fill:#595959;" d="M279.375,191.505c1.084-0.977,3.645-0.241,4.862-1.456c1.214-1.218,8.266-18.478,8.75-20.179
		c0.485-1.701,1.946-1.46,1.946,0.973c0,2.433-1.458,6.076-2.431,8.264c-0.975,2.188-2.674,7.049-3.404,8.509
		c-0.73,1.46-4.375,4.13-4.619,5.59c-0.243,1.46-0.243,3.647-0.243,3.647C281.563,198.8,276.947,193.693,279.375,191.505z"/>
	<path style="fill:#595959;" d="M310.002,203.903c0-2.686,2.191-4.862,2.435-3.161c0.241,1.701,0.241,6.322-0.973,5.107
		C310.248,204.631,310.002,205.117,310.002,203.903z"/>
	<path style="fill:#595959;" d="M312.192,207.309c3.404,0.241,5.105-1.705,6.32-0.49c1.217,1.218,0.973,4.375-0.241,3.889
		c-1.216-0.483-1.216-0.969-3.647-1.697c-2.431-0.732-3.404,0.482-1.944,1.697c1.458,1.218,12.155,9.728,16.773,13.371
		c4.619,3.647,10.454,7.536,12.155,8.509c1.701,0.973,2.918,3.647,0,2.674c-2.917-0.973-11.668-7.777-12.398-5.835
		c-0.73,1.946,0.973,9.482-5.103,10.21c-6.078,0.728-4.621,7.295-7.538,7.536c-2.917,0.245-8.753-1.46-10.938-0.728
		c-2.19,0.728-5.835,3.402-13.371,4.13c-7.534,0.732-4.864-0.728-1.458-1.214c3.404-0.487,14.099-4.862,15.072-5.835
		c0.973-0.973,4.862-1.215,6.077-2.188c1.216-0.973,2.433-0.728,4.134-0.487c1.701,0.245,3.159-3.644,3.889-6.076
		c0.728-2.429,2.185-9.965,0.728-11.183c-1.458-1.214-7.047-5.59-8.992-8.264c-1.946-2.674-2.919-4.375-4.134-5.835
		c-1.214-1.456-0.487-2.184,1.214-2.184C310.489,207.309,312.192,207.309,312.192,207.309z"/>
	<path style="fill:#595959;" d="M396.301,208.765c-2.188-1.456,0.487-0.973,0.487-3.402c0-2.433,0-1.701,1.703,0
		C400.192,207.064,397.761,209.738,396.301,208.765z"/>
	<path style="fill:#595959;" d="M378.068,198.313c3.63,1.035,4.377,0.241,4.864,1.214c0.486,0.973-1.701,1.701-3.404,1.215
		C377.827,200.256,376.369,197.827,378.068,198.313z"/>
	<path style="fill:#595959;" d="M362.512,189.076c2.038,1.88,6.563,6.076,9.48,7.049c2.918,0.973,4.377-0.973,1.458-2.188
		c-2.916-1.218-3.889-1.946-6.076-4.621C365.188,186.643,359.353,186.157,362.512,189.076z"/>
	<path style="fill:#595959;" d="M330.182,193.206c2.915,0.245,10.452-0.973,14.099-2.916c3.645-1.946,7.049-1.946,5.348-0.241
		c-1.703,1.697-5.105,3.889-9.48,4.375c-4.377,0.483-5.105,0.969-8.266,0.483C328.724,194.424,330.182,193.206,330.182,193.206z"/>
	<path style="fill:#595959;" d="M312.437,200.742c2.429,1.219,4.86,4.621,6.074,6.076c1.217,1.46,3.161-1.701,1.701-3.889
		c-1.456-2.188-2.429-2.916-6.076-6.318c-3.647-3.406-3.159-1.219-1.699,0.728C313.895,199.286,312.437,200.742,312.437,200.742z"/>
	<path style="fill:#595959;" d="M218.846,216.546c-0.486-2.433-0.486-7.054-1.703-8.023c-1.216-0.973-5.103-10.21-7.536-11.183
		c-2.431-0.973-6.563,0.728-9.724,1.215c-3.159,0.486-3.645,1.214-5.103,0c-1.46-1.215-4.862-3.402-7.049-5.348
		c-2.189-1.942-1.458-0.241-1.458,2.433c0,2.674-0.487,9.237,2.916,10.938c3.404,1.701,8.264,3.889,9.724,6.321
		c1.46,2.429,7.049,0.973,3.161-1.701c-3.889-2.674-8.752-5.835-10.697-6.808c-1.942-0.973-1.214-3.647-1.214-4.617
		c0-0.973,3.159,2.67,5.833,2.67c2.674,0,7.536-1.456,9.967-2.188c2.431-0.728,6.565,4.134,7.293,7.294
		c0.73,3.161,0.486,4.862,0.971,6.804c0.489,1.946,0.973,4.134,2.676,4.134C218.603,218.488,218.846,216.546,218.846,216.546z"/>
	<path style="fill:#595959;" d="M256.767,198.555c1.703,0.732,11.183,5.348,18.963,5.835c7.777,0.486,8.507-0.241,10.208,1.701
		c1.703,1.946,2.919,2.433,1.703,4.862c-1.216,2.433-6.324,5.594-19.449,6.076c-13.126,0.486-21.39-3.157-24.794-3.643
		c-3.404-0.487-2.188,1.456-3.404,1.942c-1.214,0.486-5.592-2.916-6.319-2.916c-0.73,0-4.132,1.215-7.051,0.241
		c-2.916-0.973-1.942-1.942-5.103-2.188c-3.161-0.241-0.243-1.701,2.188-1.701c2.431,0,7.293-0.241,8.507-1.215
		c1.219-0.973,2.676-2.433,3.404-0.241c0.73,2.184,2.431,2.67,3.402,2.67c0.973,0,5.107,0.245,15.315,3.161
		c10.21,2.916,23.093,1.215,24.794,0c1.703-1.214,2.919-1.942,3.892-1.942c0.971,0,2.916-0.486,3.159-1.218
		c0.243-0.728-1.458-3.402-2.918-3.643c-1.458-0.245-5.103,0.483-8.749,0c-3.647-0.487-10.94-2.433-15.559-4.866
		C254.336,199.041,256.767,198.555,256.767,198.555z"/>
	<path style="fill:#595959;" d="M237.32,203.662c-0.24-1.686-0.728-0.732-1.701-2.192c-0.973-1.456,0-2.184,2.918-1.214
		c2.917,0.973,5.105-0.728,6.32-1.701c1.217-0.969,2.917-2.915,4.132-2.674c1.216,0.245,2.431-1.456,3.891-1.456
		c1.458,0,4.619-2.919,5.592-3.892c0.971-0.969,0.241-5.103,1.701-2.674c1.458,2.433,1.458,3.647-0.243,4.134
		c-1.703,0.487-3.161,1.701-3.161,2.916c0,1.218-1.701,3.161-3.889,3.161c-2.189,0-2.917-0.241-4.375,1.46
		c-1.46,1.701-1.215,1.701-3.161,1.701c-1.944,0-1.46,0.486-2.917,1.946C240.967,204.631,237.807,207.064,237.32,203.662z"/>
	<path style="fill:#595959;" d="M341.606,173.759c-2.917,2.188-6.806,0.732-4.134,2.919c2.676,2.188,5.107,1.701,5.594,0.486
		c0.487-1.218,6.076-8.754,8.749-11.428c2.676-2.67,4.864-3.157,4.377-4.737c-0.487-1.58,0-4.741-1.458-4.375
		c-1.458,0.362-2.919,3.281-2.919,4.009C351.815,161.361,341.606,173.759,341.606,173.759z"/>
	<path style="fill:#595959;" d="M294.689,165.495c0-1.238,1.703-8.751,1.703-10.697c0-1.942,1.215,0.245,0.971,3.889
		C297.122,162.334,294.689,167.196,294.689,165.495z"/>
	<path style="fill:#595959;" d="M227.355,313.051c2.431,0.973,1.46,2.916,0.973,5.349c-0.486,2.429,2.429,8.75,2.916,14.099
		c0.487,5.348-0.484,10.206,0.487,12.639c0.973,2.429-2.916,0.973-3.889-2.916c-0.973-3.889-2.92-6.322-2.431-8.754
		c0.484-2.429,1.458-11.179,0-14.095c-1.458-2.919-4.862-4.379-3.402-4.866L227.355,313.051z"/>
	<path style="fill:#595959;" d="M352.303,243.525c-4.134-0.413-5.833-8.264-5.833-8.264s3.887,0.973,6.806,1.946
		C356.192,238.177,357.165,244.012,352.303,243.525z"/>
	<path style="fill:#595959;" d="M414.047,263.946c-4.375-1.942-6.32-5.835-0.485-2.916c5.833,2.916,7.777,1.942,11.668,3.402
		c3.891,1.46,3.891,2.915,7.779,4.375c3.887,1.46,0.973-1.46-3.889-1.46c-4.864,0-8.268-0.969-8.268-0.969L414.047,263.946z"/>
	<path style="fill:#595959;" d="M364.946,247.418c2.75,3.667,5.833,4.376,12.639,7.291c6.806,2.92,8.75,6.808,5.835,6.322
		c-2.918-0.486-5.35-2.919-7.779-3.402c-2.431-0.49-7.781-4.866-13.13-8.754c-5.346-3.889-5.831-10.697,0.975-7.777
		c6.804,2.916,21.876,7.777,29.171,10.697c7.291,2.915,6.806,2.429,10.695,5.344c3.891,2.919,8.266,3.406,3.891,2.919
		c-4.375-0.486-9.241-2.429-14.099-4.862c-4.864-2.433-15.074-4.862-21.88-7.295C364.46,245.472,363.486,245.472,364.946,247.418z"
		/>
	<path style="fill:#595959;" d="M451.486,285.826c-3.406-2.919-9.725-11.183,0.485-3.893c10.21,7.295,14.586,11.67,7.779,11.183
		c-6.808-0.487-23.336,4.862-39.381-1.46c3.889-0.486,35.977,1.46,35.004-1.456C454.402,287.282,451.486,285.826,451.486,285.826z"
		/>
	<path style="fill:#595959;" d="M440.789,272.21c5.347,3.893,10.21,2.919,17.015,3.893c6.808,0.969,20.419,7.291,28.684,14.586
		c8.266,7.291,10.699,8.264,7.779,9.724c-2.915,1.456-20.419,11.18-27.227,14.099c-6.806,2.916-5.833,3.889,2.433,1.456
		c8.264-2.429,26.738-10.693,30.629-10.693c3.889,0,7.293-0.973,5.833-2.433c-1.458-1.46-6.804-4.375-7.779-6.321
		c-0.969-1.942-16.043-13.126-22.849-16.528c-6.808-3.402-19.447-5.348-24.307-7.295c-4.864-1.942-8.753-2.916-8.753-2.916
		L440.789,272.21z"/>
	<path style="fill:#595959;" d="M411.618,345.138c-2.919-8.751-7.777-32.087-4.375-42.783c3.402-10.697,2.918-13.612,1.456-14.099
		c-1.456-0.487-2.429-3.402-2.429-3.402s5.348-4.862-4.377-11.67c-9.724-6.804-9.724-6.804-9.724-6.804s-2.917-4.862,0.975-2.919
		c3.889,1.946,14.099,9.237,18.474,14.585c4.375,5.348,2.429,12.643,1.944,14.586c-0.486,1.946-1.458,6.322-0.973,7.781
		c0.487,1.456,0,6.318,0,6.318s0.197,4.477-0.971,5.349c-1.946,1.456-1.462,8.264-1.462,9.724c0,1.456,1.948,10.697,2.433,14.586
		C413.076,340.276,411.618,345.138,411.618,345.138z"/>
	<path style="fill:#595959;" d="M146.161,236.235c4.377-2.429,7.779-8.75,7.779-8.75c5.835-1.946,4.375-5.348,8.264-5.835
		c3.89-0.487,9.726,0.486,9.726,2.915c0,2.433,4.377,3.893,4.377,3.893s1.456-3.406,2.915-2.92
		c1.458,0.487,10.697,5.348,14.099,5.835c3.404,0.487,0.486,3.402-1.46,3.889c-1.943,0.487-2.429,1.946-1.943,3.402
		c0.487,1.46-0.002,5.835-0.486,9.728c-0.486,3.889-4.377,12.639-5.835,15.555c-1.46,2.919-0.973,5.835,1.458,3.406
		c2.433-2.433,2.917-7.781,4.377-11.183c1.458-3.402,3.404-11.67,5.348-14.099c1.944-2.433,3.402-5.348,3.402-5.348
		s0.002-5.349,2.431-5.349c2.431,0,8.75,0.973,13.126,1.946c4.377,0.969,4.377,2.429,5.35,4.862
		c-2.918,4.375-3.406,16.041-4.864,27.225c-1.458,11.184,0.971-2.433,0,0c-0.971,2.429,4.377,0.487,4.377-7.291
		c0-7.781,3.889-16.045,4.862-18.965c0.971-2.916-2.918-7.777-0.973-8.264c1.944-0.486,5.348-3.402,3.889-2.915
		c-1.46,0.487-10.697,2.429-14.586,2.915c-3.889,0.487-9.237-2.429-10.695-2.429c-1.458,0-7.293,0.969-11.182-0.487
		c-3.891-1.46-9.792-4.644-11.67-5.349c-3.889-1.46-5.348-3.402-9.237-3.888c-3.889-0.487-8.751-1.946-10.697,0.486
		c-1.944,2.429-4.862,4.375-6.806,6.318c-1.944,1.946-3.887,6.808-6.32,8.751C142.759,236.235,146.161,236.235,146.161,236.235z"/>
	<path style="fill:#595959;" d="M177.763,284.853c1.46-1.46,1.46-6.808,4.375-5.348c2.917,1.46,5.35,1.46,8.268-0.487
		c2.916-1.942,8.748-2.916,6.32-0.973c-2.431,1.946-15.559,8.755-18.476,10.21c-2.918,1.46-2.918,4.375,0.973,5.348
		c3.889,0.973,14.585,3.888,17.988,8.75c3.404,4.862,9.239,15.072,13.128,16.532c3.889,1.46,3.402,0.487,5.346-4.862
		c1.946-5.348,6.322-7.295,7.781-7.781c1.456-0.483-0.487-2.915,0.971-4.858c1.458-1.946,4.862,4.858,2.918,6.804
		c-1.944,1.946-2.433,3.402,0,4.862c2.431,1.46-2.918,2.919-5.348,4.375c-2.431,1.46-5.349,2.433-7.293,4.375
		c-1.944,1.946-1.944,3.889-5.348,1.946c-3.404-1.946-10.208-15.072-19.446-20.421c-9.239-5.348-12.156-7.291-16.045-7.291
		c-3.889,0-6.806,1.456-5.348-2.433c1.46-3.889-0.487-8.264,3.404-7.777C175.819,286.313,177.763,284.853,177.763,284.853z"/>
	<path style="fill:#595959;" d="M200.128,272.214c6.322-2.433,10.697-4.862,14.099-6.808c3.404-1.946,3.891,1.46,0.487,2.915
		c-3.404,1.46-11.668,6.322-14.586,7.295C197.211,276.589,200.128,272.214,200.128,272.214z"/>
	<path style="fill:#595959;" d="M138.384,313.051c5.337-0.592,14.101-1.942,17.987-2.915c3.891-0.973,11.668-3.406,17.503-3.406
		c5.835,0-1.944,3.893-6.806,3.893c-4.864,0-10.212,1.456-12.641,3.402c-2.431,1.946-4.375,0.973-10.697,0.973
		c-6.32,0-9.235,1.943-9.235,1.943S134.007,313.538,138.384,313.051z"/>
	<path style="fill:#595959;" d="M358.623,298.952c4.375-2.915,3.404-2.915,4.375-0.973c0.975,1.946,3.891,6.322,4.862,8.264
		c0.971,1.946-0.487,5.349,0,6.808c0.487,1.46,2.919,2.919,4.377,4.862c1.458,1.946-2.431,3.889,0,6.808
		c2.431,2.915,5.348,6.804,0.971,7.777c-4.377,0.973-16.53-3.889-20.905-10.21c9.237,5.835,15.557,8.75,16.528,5.348
		c0.975-3.402-0.971-5.348-1.458-7.777c-0.484-2.433-4.375-6.808-4.375-8.268C362.998,310.135,358.623,298.952,358.623,298.952z"/>
	<path style="fill:#595959;" d="M312.437,252.766c1.458,3.889,1.458,4.862,4.375,4.862s7.779,0.487,17.99,4.862
		c10.208,4.375,16.53,5.831,17.501,12.153c0.973,6.322,3.404,18.961,5.835,19.934c2.429,0.973,5.348-3.889,5.348-3.889
		s-1.946-3.889-4.864-10.697c-2.918-6.808-3.889-13.612-8.266-15.072c-4.373-1.46-14.097-7.777-16.041-7.777
		c-1.946,0-13.128-2.433-15.559-2.92C316.326,253.736,312.437,252.766,312.437,252.766z"/>
	<path style="fill:#595959;" d="M247.775,247.418c-1.946,0.973-18.963,9.237-21.393,12.153c-2.431,2.919-5.348,4.375-5.348,4.375
		s0,3.406,5.348,0.487c5.348-2.916,12.155-7.777,15.072-8.751c2.916-0.973,4.375-2.919,5.835-3.889
		c1.458-0.973,1.942,2.429,1.458,5.835c-0.487,3.402-4.864,9.72-7.779,14.586c-2.917,4.862-8.753,12.639-10.21,15.555
		c-1.458,2.92,1.458,5.835,1.458,3.889c0-1.942,10.695-17.501,13.128-20.903c2.433-3.402,13.614,0.487,19.934,5.348
		c6.32,4.862,15.557,19.934,17.503,25.283c1.944,5.344,3.889,9.237,5.833,11.666c1.944,2.429,3.891,6.322,3.891,6.322
		s18.961,26.252,16.53,22.363c-2.431-3.889-12.155-23.823-15.072-27.225c-2.918-3.406-6.32-13.126-7.779-15.072
		c-1.458-1.946-6.32-9.237-6.32-11.183c0-1.942-8.266-12.639-15.559-16.528c13.612-3.406,27.225-6.808,30.631-9.237
		c3.402-2.433,7.291,1.943,9.237,5.345c1.946,3.406,27.711,38.408,41.326,47.163c-0.973-2.433-13.128-17.991-18.476-22.367
		c-5.349-4.375-10.695-13.612-12.639-17.014c-1.944-3.402-8.752-14.099-7.78-16.532c0.971-2.429,4.862-8.751,1.458-7.777
		c-3.402,0.973-5.835,4.862-7.293,4.862c-1.46,0-2.917-4.375-2.917-4.375s-1.944,1.942-1.944,4.375c0,2.429-0.485,4.375-14.586,8.75
		c-14.099,4.375-21.392,3.402-26.254,2.433c-4.862-0.973-6.319-3.406-4.862-5.348c1.458-1.946,1.944-4.862,1.944-4.862
		s-0.487-4.376-0.487-9.237C251.662,243.043,247.775,247.418,247.775,247.418z"/>
	<path style="fill:#595959;" d="M135.953,243.529c2.916-2.92-0.975-0.973,2.916-2.92c3.891-1.946,5.835,1.46,2.433,3.402
		c-3.406,1.946-3.406,1.46-1.46,15.559c1.944,14.099-0.973,25.282-0.973,25.282s2.917,15.559,1.46,18.961
		c-1.46,3.402-4.375,1.46-4.375-3.889c0-5.348,1.458-26.255,0.973-30.631C136.438,264.919,135.953,243.529,135.953,243.529z"/>
	<path style="fill:#595959;" d="M246.314,240.61c-6.806,2.429-20.905-4.375-25.767-8.268"/>
	<path style="fill:#595959;" d="M253.34,247.009c-10.675-0.685-24.229-2.044-32.524-9.401"/>
	<path style="fill:#595959;" d="M282.291,239.637c-11.181,3.402-22.363,14.099-35.002,13.612"/>
	<path style="fill:#595959;" d="M290.253,243.071c-3.467,2.549-7.96,5.363-13.13,6.945c-5.031,1.711-10.392,3.239-15.578,3.371
		c-4.914,0.161-8.564-0.068-10.609-0.921c-1.031-0.399-1.608-0.99-1.754-1.327c-0.146-0.341-0.08-0.318,0.157-0.011
		c0.547,0.607,1.722,0.864,3.541,0.878c1.842,0.029,4.385-0.198,8.103-0.389c3.642-0.082,6.887-0.903,9.592-1.645
		c2.709-0.776,4.897-1.6,6.491-2.246c1.589-0.669,2.087-0.745,3.289-1.196c1.202-0.501,3.328-1.223,7.508-4.148
		c4.143-2.984,6.013-5.312,6.842-6.417c0.782-1.144,1.039-0.862,0.453,0.582C293.977,239.434,290.256,243.101,290.253,243.071z"/>
	<path style="fill:#595959;" d="M212.283,224.078c-3.404,0-6.806,0-10.21-0.486c-7.777-0.487-10.697-6.804-17.503-9.724"/>
	<path style="fill:#595959;" d="M224.681,220.676c-3.891,0-11.427-1.46-15.315-2.433c-3.404-0.487-7.779-2.429-11.182-2.916
		c-2.916,0-7.293,0-10.21-0.973"/>
	<path style="fill:#595959;" d="M376.246,361c-3.464,0.911-5.652,0-2.735-0.911c2.918-0.911,7.476-2.004,9.846-2.915
		c2.369-0.915,3.644,0.545,1.641,1.09C382.992,358.812,376.246,361,376.246,361z"/>
	<path style="fill:#595959;" d="M296.756,375.951c2.007,0,4.741,0.911,9.846,0c5.105-0.911,2.735,1.273,0,1.456
		c-2.734,0.183-11.485,1.094-17.869,1.46C282.353,379.233,296.756,375.951,296.756,375.951z"/>
	<path style="fill:#595959;" d="M319.181,373.943c2.904-0.265,31.724-6.197,35.734-7.657c2.004-0.545,3.828,0,4.375,0
		c0.549,0,0-2.371,1.824-2.188c1.824,0.183,3.828,0.549,2.918,1.826c-0.911,1.273-2.918,1.094-3.83,1.456
		c-0.911,0.366-0.545,1.094-1.822,1.46c-1.277,0.366-19.69,4.013-29.537,5.286c-9.844,1.277-10.208,0.915-10.938,0.732
		C317.176,374.674,317.176,374.126,319.181,373.943z"/>
	<path style="fill:#595959;" d="M332.307,364.099c-1.794,0.362-0.364-2.371,1.46-2.55c1.824-0.183,11.485-4.741,14.769-6.384
		c3.28-1.639,2.37-0.362,0.181,1.094C346.53,357.719,335.954,363.37,332.307,364.099z"/>
	<path style="fill:#595959;" d="M227.293,346.963c1.46,0.362,2.371,1.09,2.919,2.733c0.545,1.643,3.098,2.005,3.281,3.099
		c0.181,1.094-0.183,5.107,1.092,8.023c1.277,2.919,7.293,17.139,13.675,18.961c6.382,1.826,31.723-2.371,35.551-3.099
		c3.83-0.728,7.659-1.639,9.116-1.46c1.458,0.183,6.199-1.277,7.112-1.639c0.909-0.366,22.606-6.746,25.887-8.206
		c3.282-1.46,3.645,0.183-0.911,2.005c-4.558,1.826-28.26,10.21-41.205,12.581c-12.943,2.371-34.093,4.741-39.743,1.643
		c-5.654-3.103-7.293-8.934-8.933-11.853c-1.641-2.915-4.56-13.854-5.471-15.679c-0.911-1.822-2.188-4.375-3.098-5.652
		C225.652,347.146,227.293,346.963,227.293,346.963z"/>
	<path style="fill:#595959;" d="M376.065,383.97c2.552,0,4.922,1.098,6.563,2.009c1.639,0.911,4.192,0.545,2.186-1.277
		c-2.005-1.822-2.005-2.005-5.103-3.099C376.612,380.509,374.423,380.689,376.065,383.97z"/>
	<path style="fill:#595959;" d="M350.906,416.243c-1.975,0.393-2.553-2.005-0.183-2.919c2.371-0.911,21.149-8.385,24.977-10.21
		c3.828-1.822,9.299-4.558,12.215-6.197c2.917-1.643,2.917,0,1.277,1.277c-1.641,1.277-22.242,11.304-26.982,13.309
		C357.469,413.507,353.638,415.695,350.906,416.243z"/>
	<path style="fill:#595959;" d="M319.545,426.271c-2.174-0.241-3.828-2.737-0.73-2.737c3.1,0,8.206-1.822,9.116-2.733
		c0.911-0.911,1.46-2.736,3.464-2.37c2.007,0.362,5.652,0.545,8.206-0.732c2.552-1.277,4.922-2.184,6.199-2.005
		c1.275,0.183,2.552,1.46,0,2.554c-2.553,1.094-6.565,2.188-10.576,3.281C331.213,422.623,321.186,426.454,319.545,426.271z"/>
	<path style="fill:#595959;" d="M220.06,435.566c-0.971-1.46-5.346,0.487-0.971-1.46c4.375-1.942,5.348,3.893,10.21,4.375
		c4.862,0.487,43.757-3.402,59.8-7.291c16.045-3.889,22.365-5.349,24.796-5.835c2.431-0.483,5.833-0.483-1.458,2.433
		c-7.293,2.916-17.99,3.889-28.686,6.804c-10.695,2.919-33.546,5.835-44.728,6.808c-11.183,0.973-16.532-1.46-16.532-1.46
		L220.06,435.566z"/>
	<path style="fill:#595959;" d="M430.093,320.828c1.458,1.46,8.264,2.916,14.099,0.973c5.833-1.946,9.237-2.919,12.153-2.433
		c2.918,0.486,4.375-4.375-2.431-2.916c-6.806,1.456-9.722,4.862-15.557,3.889c-5.835-0.973-9.724-1.946-11.183-1.946
		C425.715,318.396,430.093,320.828,430.093,320.828z"/>
	<path style="fill:#595959;" d="M409.672,317.909c3.402,3.893,9.237,5.348,11.181,7.781c1.946,2.429,2.918,5.835,7.293,6.322
		c4.375,0.487,2.918-0.973,12.641,5.835c9.724,6.804,14.099,10.693,14.099,16.528c0,5.835-2.431,6.808-2.431,8.264
		c0,1.46-2.918,1.946-2.431,3.893c0.487,1.942-2.431,10.206-4.375,13.612c-1.944,3.402-7.293,13.126-7.293,14.586
		c0,1.456,2.431,4.375,3.889,1.456c1.46-2.915,5.835-7.291,7.293-9.724c1.46-2.429,0.488-4.862,0.973-6.804
		c0.486-1.946,1.944-3.889,3.402-4.379c1.458-0.483,2.431-5.344,2.431-7.777c0-2.429,2.433-6.804,2.918-9.724
		c0.488-2.916,4.377-6.804-1.458-11.18c-5.833-4.379-20.907-14.585-27.711-18.961c-6.808-4.379-18.476-9.727-20.907-12.643
		C406.755,312.078,409.672,317.909,409.672,317.909z"/>
	<path style="fill:#595959;" d="M238.05,393.756c3.404-4.862,4.375-9.237,4.375-10.697c0-1.46,4.864,0.973,4.864,4.862
		c0,3.889-7.293,11.183-9.724,14.099c-2.431,2.915-3.891,6.808-4.864,9.237c-0.971,2.433-3.402,12.639-7.779,16.045
		c-4.375,3.402-6.318,2.429-3.889-0.487c2.431-2.919,6.806-11.183,7.293-16.045c0.488-4.862,6.323-9.724,7.779-12.152
		C237.565,396.185,238.05,393.756,238.05,393.756z"/>
	<path style="fill:#595959;" d="M163.664,205.849c0.461-4.461-4.132-8.509-2.674-8.268c1.46,0.245,3.406,1.705,4.375,3.406
		c0.973,1.701,1.703-1.218,0.73-2.674c-0.971-1.46,2.188,0.483,3.404,5.103c1.214,4.62-2.431,8.023-2.431,10.938
		c0,2.919,0.485,3.647-0.973,2.188C164.638,215.086,162.935,212.899,163.664,205.849z"/>
	<path style="fill:#595959;" d="M144.704,206.332c0,2.433,1.946,5.835,4.862,7.295c2.918,1.46,6.563-0.245,6.078,5.835
		c-0.486,6.076,5.59,0.486,5.346-0.732c-0.241-1.215,0-5.831-2.186-8.751c-2.189-2.915-4.864-6.318-7.781-7.536
		c-2.915-1.214-1.944-0.241,0.243,3.161c2.188,3.406,3.891,6.076,1.46,5.835C150.293,211.197,144.704,206.332,144.704,206.332z"/>
	<path style="fill:#595959;" d="M172.658,339.303c0.73,0.973,7.536,2.919,10.697,3.161c3.159,0.245,11.182,4.375,19.447,11.911
		c8.262,7.536,28.441,20.179,33.303,21.88c4.862,1.701,3.643,2.916,1.458,2.188c-2.188-0.728-19.204-9.969-23.093-12.639
		c-3.89-2.678-9.969-6.321-9.969-6.321s-0.971,0.728-2.429-0.732c-1.458-1.456-14.831-9.965-20.177-11.911
		c-5.346-1.942-8.749-5.103-10.452-6.804C169.741,338.333,172.658,339.303,172.658,339.303z"/>
	<path style="fill:#595959;" d="M221.763,395.702c-0.73,1.215-1.216,3.889,0.485,5.835c1.703,1.942,3.404,4.617,1.46,5.103
		c-1.944,0.487-6.563,1.46-6.32-3.161c0.243-4.617,0.971-10.452,0-11.911c-0.975-1.46-15.802-18.474-18.233-20.175
		c-2.431-1.701-4.86-4.62-8.021-6.08c-3.161-1.456-8.752-9.478-25.282-9.478c-16.532,0-15.559-2.188-18.474-2.433
		c-2.917-0.241-1.458-1.215-10.21,1.46c-8.751,2.674-21.148,6.076-35.006,2.674c-10.938-2.429-10.21-4.621-7.536-3.889
		c2.674,0.728,15.315,1.946,23.581,0.487c8.264-1.46,22.85-2.674,25.767-2.915c2.917-0.245,5.348,0.241,8.509,1.456
		c3.159,1.214,18.474,1.46,24.309,2.433c5.833,0.969,17.258,8.023,18.472,8.505c1.216,0.487,2.188,2.433,4.134,4.134
		c1.944,1.701,11.666,10.938,14.827,12.153c3.163,1.218,7.295,0.245,10.212,1.946c2.918,1.701,13.856,2.919,16.773,2.188
		c2.917-0.728,4.132,1.701,1.701,1.946c-2.431,0.241-2.431,0.487-8.266,0.487c-5.833,0-8.264-0.732-11.181-1.218
		c-2.918-0.483-3.645,0.732-1.944,4.134c1.701,3.402,4.862,4.375,4.619,7.295c-0.243,2.916,0.243,2.188-1.217,0.728
		C223.464,395.944,221.763,395.702,221.763,395.702z"/>
	<path style="fill:#595959;" d="M326.534,382.331c2.425,0.303,11.182-0.241,14.099-0.487c2.918-0.241,2.674,0.487,4.619,0.728
		c1.944,0.245,3.891-0.487,5.105-0.487c1.217,0,6.322,0.487,10.697,0.973c4.375,0.487,6.806,0.487,9.967,0.973
		c3.159,0.487,2.918-1.214,1.217-3.161c-1.703-1.942-2.431-3.643-4.621-3.402c-2.188,0.245-3.891,1.701-6.563,1.46
		c-2.674-0.245-7.536-0.487-8.75-0.245c-1.216,0.245-1.462,1.46-1.462,1.46s-4.615,0.973-5.833,0.728
		c-1.214-0.241,1.703-1.456-1.458-1.456c-3.161,0-9.235,1.214-16.287,0.973C320.213,380.143,320.699,381.603,326.534,382.331z"/>
	<path style="fill:#595959;" d="M183.842,211.439c-1.46-0.732-2.431-2.674-2.674-3.889c-0.241-1.214-2.189-4.134-3.645-8.264
		c-1.46-4.134-2.19-3.893-1.944-0.487c0.241,3.402,0,5.59-2.431,9.724c-2.433,4.13-0.973,11.18,0.485,13.126
		c0,0,5.592,3.888,1.701-0.487c-3.889-4.375-2.674-9.965,0-12.884c2.676-2.916,3.404-2.188,4.862,0
		c1.46,2.188,1.216,2.674,2.676,3.889C184.328,213.381,185.299,212.167,183.842,211.439z"/>
	<path style="fill:#595959;" d="M40.661,382.086c0.487-1.697,0.973-1.697,2.431-1.943c1.46-0.245,2.915,0.241,1.946,1.943
		c-0.973,1.705-3.404,2.919-3.404,5.107c0,2.188,0,4.862-0.973,5.835c-0.973,0.973-0.973,2.674-1.216,4.375
		c-0.241,1.701,1.46,4.134-1.215,4.134c-2.672,0-2.188,2.915-3.889,3.643c-1.701,0.732-1.701-2.429-0.973-3.643
		c0.728-1.218,2.433-3.406,2.433-3.406s1.701-5.59,1.701-6.318c0-0.732,0.973-2.674,1.458-3.406
		C39.444,387.68,40.661,382.086,40.661,382.086z"/>
	<path style="fill:#595959;" d="M89.036,436.298c3.645-0.487,16.532-2.919,15.557-1.46c-0.971,1.46-12.396,2.188-18.959,3.889
		c-6.565,1.701-9.237,2.674-9.237,2.674s-3.161-1.215-6.808-0.241c-3.645,0.973-5.835,4.13-8.75,4.375
		c-2.918,0.241-8.753,3.402-17.26,0c-8.509-3.402-17.746-11.425-17.988-15.072c-0.245-3.647,2.916-11.666,2.429-14.34
		c-0.487-2.674,0-2.92,1.216-4.134c1.214-1.215,3.645-2.433,5.105-3.889c1.46-1.46,2.431,2.188-0.486,4.862
		c-2.916,2.674-1.458,13.854-1.458,18.229c0,4.375,1.699,7.049,7.779,8.996c6.078,1.946,14.584,0.973,16.041,0.487
		c1.46-0.487,3.163-0.728,4.621-0.728c1.458,0,11.911-0.732,14.829-1.218C78.584,438.24,89.036,436.298,89.036,436.298z"/>
	<path style="fill:#595959;" d="M99.733,440.673c3.159,0,11.911-1.46,17.503-3.647c5.59-2.188,22.602-5.711,20.419-4.617
		c-1.944,0.969-15.559,5.103-17.746,6.076c-2.186,0.973-2.186,1.942-3.645,1.701c-1.458-0.241-2.431-0.487-3.891,0.487
		c-1.46,0.973-3.645,4.13-6.076,4.13c-2.431,0-5.833-1.701-7.536-2.916C97.056,440.673,99.733,440.673,99.733,440.673z"/>
	<path style="fill:#595959;" d="M86.605,418.793c1.705-0.471,3.645-1.456,3.645-0.728c0,0.728,0.732,4.621-1.699,4.134
		c-2.431-0.487-7.779,0.487-10.21,0.241c-2.433-0.241-1.458-1.46-2.917-1.46c-1.46,0-0.732,0.732-3.161,1.218
		c-2.433,0.487-2.918,2.429-8.021,0.241c-5.107-2.188-6.324-5.835-3.649-3.889c2.674,1.946,6.565,3.889,8.752,1.946
		c2.188-1.946,4.377-4.375,6.322-3.161C77.611,418.552,82.23,420.012,86.605,418.793z"/>
	<path style="fill:#595959;" d="M110.427,425.846c-0.243-2.191,1.944-3.406-3.159-3.892c-5.107-0.487-9.239-0.728-10.453-1.942
		c-1.216-1.219-2.189-2.433-2.674-1.701c-0.486,0.728-0.73,4.617,0.487,4.862c1.216,0.241,5.59,0.483,8.264,0.483
		C105.568,423.655,110.427,425.846,110.427,425.846z"/>
	<path style="fill:#595959;" d="M152.726,426.088c-1.703,0.487-20.664,0.973-32.332-0.973c-11.668-1.942-3.645,1.215-0.73,1.46
		c2.919,0.241,17.746,1.46,24.796,1.215c7.049-0.241,11.183,0,11.183,0L152.726,426.088z"/>
	<path style="fill:#595959;" d="M128.417,417.337c-0.973-1.946-2.431-4.862-3.161-5.348c-0.728-0.487,1.701-1.215,5.105,0.728
		c3.404,1.946,6.561,4.134,10.454,5.107c3.889,0.969,10.208,2.916,11.668,4.862c1.458,1.942,2.188,2.915,2.916,3.161
		c0.73,0.241,16.775,8.264,20.909,8.505c4.13,0.245,5.831,0.245,6.804,0.973c0.973,0.732,0,0.241,1.944,0.487
		c1.944,0.245,8.511-0.245,11.427-0.973c2.915-0.728,6.804-0.728,11.182-3.889c4.375-3.161,9.724-4.862,9.237-4.134
		c-0.486,0.732-6.565,6.322-12.639,8.268c-6.078,1.942-8.753,2.429-9.725,2.915c-0.969,0.487,0.732,0.732-2.188,0.973
		c-2.916,0.241-8.021,0.487-10.938,0c-2.917-0.486-2.674-1.701-4.862-2.188c-2.19-0.487-10.454-2.919-16.773-5.835
		c-6.321-2.916-9.969-5.59-10.94-6.076c-0.971-0.486-7.048-2.674-9.967-4.134C135.953,419.28,128.417,417.337,128.417,417.337z"/>
	<path style="fill:#595959;" d="M121.122,413.449c-3.384-1.355-5.831-6.076-1.942-5.107
		C123.069,409.315,124.77,414.905,121.122,413.449z"/>
	<path style="fill:#595959;" d="M110.671,407.127c-3.402-0.732-6.078-2.188-8.509-2.188c-2.429,0-5.59,1.701-9.48-0.245
		c-3.889-1.942-5.833-6.076-2.916-4.617c2.916,1.46,7.536,2.429,12.883,1.46c5.348-0.973,5.594,1.942,8.023,2.915
		C113.102,405.426,110.671,407.127,110.671,407.127z"/>
	<path style="fill:#595959;" d="M105.324,331.039c-1.216,0.973-2.676,3.161-2.676,5.835s1.46,3.402,0,3.647
		c-1.458,0.241-4.862-1.46-5.592-1.701c-0.728-0.245-1.458,0.483-2.186,1.214c-0.73,0.728-2.433,0.728-3.161,0.241
		c-0.73-0.486-0.971-3.643-3.89-4.13c-2.916-0.487-1.944,1.214-2.916,2.915c-0.973,1.701-1.944,2.433-2.918,2.188
		c-0.973-0.241-3.402-0.973-6.078-0.973c-2.672,0-6.563,0-8.264,1.46c-1.701,1.46-7.777,7.536-8.264,10.21
		c-0.486,2.674,0,6.076-1.216,7.536c-1.215,1.456-5.105,7.536-7.295,10.697c-2.186,3.157-4.13,7.046-5.59,8.023
		c-1.458,0.969-1.701-0.732-0.728-3.406c0.971-2.674,2.918-8.023,3.889-10.21c0.973-2.188,5.592-12.398,5.835-13.126
		c0.243-0.728,1.942-2.429,2.674-2.429c0.728,0,3.402-3.893,3.402-5.835c0-1.946-0.486-4.134,1.458-3.647
		c1.944,0.487,3.402,0,3.647-1.214c0.243-1.218,1.216-3.161,2.915-4.134c1.703-0.973,0.973,3.402,2.92,3.647
		c1.944,0.241,4.132-2.433,5.346-1.701c1.216,0.728,2.188,1.701,2.674-0.245c0.486-1.942,1.215-3.402,1.944-3.161
		c0.73,0.245,0.975,0.487,2.919,0.732c1.944,0.241,2.528-1.156,3.402-1.218c3.402-0.241,6.806-0.483,7.293-1.215
		c0.487-0.728-0.486-2.429,2.916-1.46C101.19,330.552,105.324,331.039,105.324,331.039z"/>
	<path style="fill:#595959;" d="M126.229,334.199c2.672-0.241,3.404,2.674,1.215,3.161c-2.188,0.487-6.808,1.46-8.509,0.487
		c-1.699-0.973-0.969-1.705-3.402-2.188c-2.431-0.486-4.134,1.46-7.536-0.245c-3.404-1.701-6.563-5.348-4.862-8.509
		c1.703-3.157,3.647-5.103,4.619-6.563c0.973-1.456,2.918,2.188,1.701,4.379c-1.213,2.184-0.971,2.67-0.485,4.371
		c0.485,1.705,3.402,3.406,5.835,3.647C117.236,332.985,126.229,334.199,126.229,334.199z"/>
	<path style="fill:#595959;" d="M137.654,337.847c-2.686,0-3.159-2.674-0.728-2.919
		C139.355,334.686,139.355,337.847,137.654,337.847z"/>
	<path style="fill:#595959;" d="M178.007,332.253c1.761-0.175,3.161-0.969,4.132-1.701c0.973-0.728,2.917,0,3.891-0.241
		c0.971-0.245-0.488,2.429-1.46,3.402c-0.971,0.973-2.674,1.214-4.132,1.214c-1.46,0-20.175,2.192-22.606,1.946
		c-2.433-0.241-0.975-0.728-3.404-0.728c-2.431,0-2.431,0.728-3.889,1.214c-1.46,0.487-0.73,0.973-3.404,0.487
		c-2.674-0.487-8.266-3.647-3.645-3.647c4.619,0,10.697,0.245,15.315-0.241c4.617-0.487,7.78-1.705,9.235-1.705
		C169.5,332.253,175.576,332.498,178.007,332.253z"/>
	<path style="fill:#595959;" d="M208.636,321.802c-2.429,1.46-5.348,2.92-8.264,3.406c-2.917,0.483-4.134,2.429-6.804,2.67
		c-2.676,0.245-3.647,1.214-5.594,1.214c-1.944,0-2.433,3.406,0.243,3.647c2.674,0.245,4.618-2.188,6.32-2.915
		c1.701-0.732,4.862-2.919,7.536-3.647c2.674-0.728,6.076,0.728,7.536-0.486C211.068,324.476,208.636,321.802,208.636,321.802z"/>
	<path style="fill:#595959;" d="M112.372,315.239c1.717-0.101,5.35-3.161,5.35-5.59c0-2.433-0.487-6.563,0.971-4.862
		c1.458,1.701,0.973,4.375,2.674,5.103c1.701,0.732,2.916,1.215,4.862,2.188c1.942,0.973,2.433,2.674,0.973,2.674
		c-1.46,0-1.46-0.728-3.649-1.946c-2.186-1.214-4.132-1.456-4.618-0.482c-0.485,0.969-1.458,2.429-2.186,3.888
		c-0.73,1.456,0.241,3.647-1.944,3.161c-2.188-0.487-2.433-1.705-3.892-0.973C109.454,319.127,108.238,315.48,112.372,315.239z"/>
	<path style="fill:#595959;" d="M132.792,280.478c0.364,1.814-1.215,9.237-2.918,10.938c-1.703,1.701-4.375,8.992-5.105,9.237
		c-0.728,0.241-1.944-0.973-1.217-2.916c0.73-1.946,2.433-4.379,3.649-5.594c1.215-1.215,3.645-5.103,3.645-8.023
		C130.848,281.206,132.547,279.259,132.792,280.478z"/>
	<path style="fill:#595959;" d="M178.009,252.521c-2.431,0.241-1.46-1.946,0.969-2.188c2.433-0.245,5.35-1.46,7.051-0.973
		C187.732,249.847,178.009,252.521,178.009,252.521z"/>
	<path style="fill:#595959;" d="M168.283,253.736c-3.408,0.148-5.592-2.188-2.672-2.188c2.916,0,6.563-0.241,7.536-0.486
		C174.118,250.82,173.875,253.495,168.283,253.736z"/>
	<path style="fill:#595959;" d="M145.92,248.146c-2.189-1.215-2.674-5.348,0.73-2.92c3.402,2.433,10.695,5.594,14.099,5.835
		c3.402,0.245,2.916,1.946,0.241,1.946c-2.674,0-7.534-0.973-9.965-2.433C148.592,249.119,145.92,248.146,145.92,248.146z"/>
	<path style="fill:#595959;" d="M182.139,279.505c0.245-1.46,1.946-1.46,1.703-3.161c-0.243-1.701-0.971-1.946-1.458-4.134
		c-0.488-2.188-1.217-1.456-1.458,0.245c-0.245,1.701-0.245,3.647-1.948,3.889c-1.701,0.245-7.534,1.215-10.695,1.215
		c-3.159,0-3.645,0.732-5.348,1.701c-1.699,0.973-2.918-0.241-5.59,0.487c-2.674,0.732-3.645,1.219-5.592,0.973
		c-1.944-0.241-6.563-2.429-9.724-4.375c-3.161-1.946-4.862,0.973-2.431,1.701c2.431,0.732,5.833,3.406,8.025,4.134
		c2.186,0.728,4.862-0.487,6.318-0.245c1.46,0.245,4.134,2.188,5.105,1.46c0.973-0.728,2.431-1.46,3.889-1.46
		c1.462,0,4.619-1.215,7.051-2.188c2.431-0.969,9.237-0.487,9.237,0.245c0,0.728,1.703,1.942,1.703,1.942L182.139,279.505z"/>
	<path style="fill:#595959;" d="M206.693,282.907c-3.163-0.973-1.462-5.103,1.942-2.188c3.404,2.916,4.377,4.375,8.753,5.835
		c4.375,1.46,8.023,2.916,8.023,4.617c0,1.705-0.489,1.946-3.404,0.732c-2.916-1.215-5.833-4.134-7.78-5.594
		C212.283,284.853,206.693,282.907,206.693,282.907z"/>
	<path style="fill:#595959;" d="M173.995,435.932c2.797,1.946,3.161,3.527,3.04,6.442c-0.122,2.915,0,5.955-0.486,7.902
		c-0.487,1.942,2.916,2.55,3.038,0c0.123-2.553,1.216-6.688-0.123-9.362c-1.335-2.674-0.851-4.13-2.429-4.741
		C175.455,435.566,173.995,435.932,173.995,435.932"/>
	<path style="fill:#595959;" d="M103.987,460.121c-0.545-0.545-3.527-4.013-3.647-5.835c-0.121-1.822,0.241-1.701,3.889,1.822
		c3.647,3.527,5.714,4.5,5.105,4.62C108.726,460.849,104.836,460.969,103.987,460.121z"/>
	<path style="fill:#595959;" d="M124.77,465.59c3.402-0.607,16.896-0.487,21.758,0.486c4.862,0.973,12.155,4.617,13.856,6.322
		c1.701,1.701,1.58,1.942,3.766,1.942c2.189,0,7.659,0.853,4.62-0.852c-3.038-1.701-7.659-5.103-16.65-7.778
		c-8.996-2.674-15.072-3.281-21.758-3.161c-6.685,0.125-8.023-0.362-8.023-0.362L124.77,465.59z"/>
	<path style="fill:#595959;" d="M128.658,454.286c0.973,0.973,4.375,0.487,4.862-1.46c0.487-1.942,1.703-4.375-1.701-4.13
		c-3.404,0.241-12.398,8.509-14.342,9.724c-1.944,1.215-3.645,1.456-4.132-1.705c-0.487-3.157-1.458-4.375,0.728-3.644
		c2.188,0.728,4.862,0.487,5.348,1.701c0.487,1.214,2.918-0.241,1.215-1.215c-1.701-0.973-1.942-1.46-5.103-3.161
		c-3.161-1.701-4.132-3.402-5.105-2.433c-0.973,0.973,0,10.697,0.971,12.157c0.973,1.46,0.73,6.076,2.433,6.563
		c1.701,0.487,1.215-4.375,2.429-5.103c1.216-0.732,2.917-1.946,4.134,0c1.215,1.942,1.944,5.59,2.674,6.318
		c0.728,0.732,5.59,0.973,3.402-2.188c-2.188-3.161-4.375-5.831-5.348-7.291C120.149,456.96,128.658,454.286,128.658,454.286z"/>
	<path style="fill:#595959;" d="M141.3,436.057c-1.216-2.191-1.216-4.62,0.487-5.107c1.703-0.486,3.161,0,3.646,3.647
		c0.486,3.643,0.728,17.015-1.942,20.175c-2.676,3.161-4.377,3.647-6.567,4.617c-2.184,0.973-3.402,0.245-2.184-0.969
		c1.214-1.214,6.076-6.321,7.048-7.781c0.971-1.456,1.703-4.617,1.703-7.536C143.489,440.187,141.3,436.057,141.3,436.057z"/>
	<path style="fill:#595959;" d="M144.704,463.768c1.184-0.272,7.534-10.21,5.833-18.478c-2.431,8.755-6.806,14.586-8.507,15.804
		C140.328,462.308,141.545,464.496,144.704,463.768z"/>
	<path style="fill:#595959;" d="M160.99,453.558c1.082-2.386,0.73-4.621,1.215-5.594c0.486-0.969,1.944,7.54-0.728,10.697
		c-2.674,3.161-2.431,5.107-4.134,4.862c-1.701-0.241-2.431-2.188-1.214-2.916C157.343,459.879,159.776,456.232,160.99,453.558z"/>
	<path style="fill:#595959;" d="M167.31,450.152c0.584-2.62,0.243-7.777-0.484-9.724c-0.73-1.942,3.402,1.705,4.132,5.594
		c0.728,3.889-0.973,12.639-2.674,14.586c-1.703,1.942-6.322,2.429-4.375,0.973C165.852,460.121,166.825,452.34,167.31,450.152z"/>
	<path style="fill:#595959;" d="M180.438,462.55c0.241-2.188,0.243-5.103,0-5.835c-0.243-0.728,2.674-2.184,2.918,2.674
		c0.243,4.862,0.728,8.754-2.676,10.21c-3.402,1.46-6.804,2.919-10.208,1.701c-3.404-1.214-5.833-4.13-3.161-3.402
		c2.674,0.732,9.726,1.46,11.668-0.487C180.922,465.469,180.438,462.55,180.438,462.55z"/>
	<path style="fill:#595959;" d="M183.355,459.389c4.86,1.705,13.612,9.241,11.668,17.26c-1.946,8.023-8.266,10.697-13.858,10.697
		c-5.59,0-26.738-1.215-34.274,0.487c-7.536,1.701-31.359,9.482-40.839,7.295c-9.48-2.188-12.641-6.076-12.641-8.996
		c0-2.915,1.701-6.076-0.487-6.076c-2.188,0-6.563-2.919-5.835-5.594c-2.672,0.487,0,5.348,0.489,6.567
		c0.484,1.215,1.944,6.318,5.103,9.724c3.161,3.402,4.86,4.617,16.045,5.831c11.181,1.218,34.274-5.348,38.893-6.318
		c4.619-0.973,24.555-0.732,30.631-0.487c6.076,0.241,22.851-3.892,23.336-10.21c0.487-6.322-0.728-8.751-1.214-10.456
		c-0.488-1.701-2.433-5.103-8.023-7.777c-5.592-2.674-8.266-3.402-9.724-3.402C181.166,457.933,183.355,459.389,183.355,459.389z"/>
	<path style="fill:#595959;" d="M110.184,467.17c-1.458,0-14.585,0.728-17.016-1.46c-2.431-2.188-3.891-7.049-2.674-6.563
		c1.216,0.486,1.703,2.188,6.078,2.674c4.375,0.486,14.585,0.973,15.559,0.728c0.971-0.241,1.215-2.429-0.732-2.429
		c-1.944,0-12.398,0.973-15.313-0.487c-2.917-1.46-4.862-2.429-5.835-3.161c-0.969-0.728-2.917,0.241-2.917,2.674
		c0,2.433,1.944,8.509,6.078,9.482C97.545,469.599,110.184,467.17,110.184,467.17z"/>
	<path style="fill:#595959;" d="M87.333,476.166c-2.84-0.712-7.534-1.218-8.264-4.62c-0.73-3.402,0-7.049,2.431-5.835
		c2.431,1.215,10.208,2.188,14.829,2.433c4.619,0.241,4.862,1.456,2.672,1.456c-2.186,0-12.396,0.732-14.099,0.487
		c-1.699-0.241-1.944,2.919,1.216,3.161c3.163,0.241,8.752-1.456,12.396-1.456c3.647,0,10.455,0.969,12.884,0.969
		c2.433,0,1.703,1.705-0.728,1.946c-2.433,0.241-8.509-1.218-11.911-0.973C95.357,473.974,89.281,476.653,87.333,476.166z"/>
	<path style="fill:#595959;" d="M118.207,473.247c0.364-1.094-0.364-3.036,1.822-4.255c2.189-1.214,1.581-1.822,1.946,1.339
		c0.364,3.157,4.254,7.415,6.442,9.965c2.188,2.554,4.134,2.795,6.808,1.581c2.67-1.215,10.815-6.442,13.367-7.291
		c2.554-0.853,4.982-1.581,9.48-0.366c4.498,1.214,5.837,2.308,4.132,2.916c-1.701,0.611-2.186,1.701-5.224,0.486
		c-3.04-1.215-2.553-2.067-5.714-0.849c-3.159,1.215-8.751,7.049-12.762,7.536c-4.009,0.483-14.584,0.969-16.409,1.094
		c-1.822,0.121-4.496,2.308-8.507,2.063c-4.011-0.241-7.9,1.094-11.668-1.456c-3.768-2.554-4.134-9.362-2.188-6.688
		c1.944,2.674,2.065,4.741,5.105,5.714c3.038,0.973,12.639,0.607,14.95-0.366c2.308-0.969,3.647-1.215,3.647-2.674
		c0-1.456,0.118-4.009-1.946-4.251c-2.065-0.245-3.645,0.241-5.59,1.456c-1.946,1.214-3.04,2.308-5.714,2.674
		c-2.674,0.366-3.645,0.732-5.71-0.487c-2.067-1.214-3.404-3.281-0.609-2.188c2.795,1.094,4.741,0.728,6.32-0.366
		c1.58-1.09,4.132-2.67,4.862-2.915C115.776,475.679,118.207,473.247,118.207,473.247z"/>
	<path style="fill:#595959;" d="M287.39,434.157c2.624,0.374,7.12,1.125,5.621,4.496c-1.499,3.375-4.122,7.497-8.994,8.996
		c-4.871,1.499-7.869,3.749-7.495,10.491c0.376,6.75,3.371,9.747,5.623,10.494c2.246,0.751-0.749-1.125-1.125-5.621
		c-0.376-4.496-1.5-8.618,1.874-9.743c3.373-1.125,5.621-3.749,6.746-5.621c1.123-1.876,2.997-2.997,5.245-2.997
		c2.248,0,5.619-2.997,4.872-6.372c-0.749-3.371,4.122-3.371,6.746-1.499c2.624,1.872,4.496,2.624,4.496,0.747
		c0-1.872,0-4.122-2.997-4.122c-2.999,0-10.117,0-10.117,0s-1.501-2.624-2.999-2.246C293.385,431.534,287.39,434.157,287.39,434.157
		z"/>
	<path style="fill:#595959;" d="M231.177,448.022c1.499-2.624,3.747-5.621,3.747-7.119c0-1.499,1.499,1.872,3.373,5.247
		c1.874,3.371,1.874,3.748-0.374,5.247c-2.248,1.499-7.12,3.745-4.122,8.245c2.997,4.496,9.367,7.12,13.492,8.245
		c4.12,1.125,5.245,6.746,7.869,9.743c2.622,2.997,10.494,8.992,13.114,9.743c2.626,0.747-1.123,1.872-2.62,1.125
		c-1.501-0.751-6.746-2.624-11.62-5.247c-2.97-1.6-4.124-1.499-5.247-4.874c-1.123-3.371-5.245-8.618-10.119-10.49
		c-4.87-1.876-7.493-1.125-8.994-5.247c-1.497-4.122-1.123-6.746-0.749-8.244C229.303,452.896,231.177,448.022,231.177,448.022z"/>
	<path style="fill:#595959;" d="M262.283,481c4.12-1.121,16.113-2.997,20.234-1.498c4.124,1.498,5.998,4.5,6.746,8.996
		c0.751,4.496,3.373,10.864,4.874,11.616c1.496,0.751-1.125,2.25-4.496-2.246c-3.373-4.5-4.124-13.492-7.495-14.617
		C278.772,482.126,262.283,481,262.283,481z"/>
	<path style="fill:#595959;" d="M272.776,489.245c5.621,1.499,4.87,2.25,8.62,6.746c3.745,4.5,7.867,4.5,10.866,3.749
		c2.999-0.751,4.872-0.378,4.872,1.499c0,1.872-2.624,1.872-5.997,1.499c-3.373-0.374-9.367-2.246-10.866-3.375
		c-1.499-1.121-2.625-4.87-4.124-6.368C274.648,491.495,272.776,489.245,272.776,489.245z"/>
	<path style="fill:#595959;" d="M258.535,437.906c-0.751,1.499-4.874,14.239-5.997,18.361c-1.125,4.122-2.25,0.751-2.25-2.624
		c0-3.371,3.375-14.99,4.874-15.364C256.662,437.906,258.535,437.906,258.535,437.906z"/>
	<path style="fill:#595959;" d="M259.282,461.141c0.778,2.141,3.375,1.125,1.501-2.624c-1.874-3.749,3.373-17.614,4.871-20.985
		c1.499-3.375-2.538,0.436-3.373,1.499C258.159,444.278,257.783,457.018,259.282,461.141z"/>
	<path style="fill:#595959;" d="M271.275,436.03c0.376,1.125,0.378,6.746-1.872,11.245c-2.25,4.496-5.996,18.361,2.624,25.107
		c2.622,1.872,0-3.375-1.501-5.621c-1.499-2.25-0.749-11.619,0.376-16.115c1.125-4.496,3.375-12.367,2.248-14.616
		C272.026,433.784,271.275,436.03,271.275,436.03z"/>
	<path style="fill:#595959;" d="M314.37,499.74c-0.747-2.624-1.871-4.496,0.751-2.997c2.624,1.499,6.746,1.125,4.5,5.621
		c-2.252,4.496-5.623,7.493-10.495,8.244c-4.874,0.751-15.742,2.25-23.986,0.751c-8.242-1.503-12.741-2.627-15.364-5.625
		s-9.743-7.871-12.367-8.992c-2.624-1.125-3.371,0-5.997-1.876c-2.624-1.872-8.245-6.368-10.492-8.992
		c-2.25-2.624-5.245-6.746-7.871-7.119c-2.624-0.378-7.495-4.122-12.743-7.497c-5.245-3.371-3.747-7.493-3.747-12.367
		c0-4.873,0-8.992,2.25-8.618c2.246,0.374,5.996,7.867,8.994,5.995c2.999-1.499,3.373,4.122,1.873,4.496
		c-1.497,0.378-4.122,0.378-5.997-1.499c-1.872-1.872-4.12-5.247-4.12-5.247s-2.624,11.993,1.125,14.616
		c3.747,2.624,14.615,8.245,18.361,12.367c3.746,4.122,7.495,6.746,10.119,7.497c2.624,0.747,2.624,2.997,4.871,4.122
		c2.25,1.121,6.37,0.747,8.246,2.997c1.872,2.25,7.12,6.372,11.991,8.996c4.872,2.62,29.981,6.746,34.852,3.371
		C313.996,504.613,314.37,499.74,314.37,499.74z"/>
	<path style="fill:#595959;" d="M290.559,476.407c2.674-0.486,5.347-1.214,8.994,3.647c3.645,4.862,6.806,8.75,10.938,8.75
		c4.132,0,3.891-1.701,2.188-2.433c-1.701-0.728-5.346-2.67-2.188-1.701c3.161,0.973,6.806,2.92,6.806,2.92
		s-0.057,1.612,0.823,1.654c0.88,0.047,2.581-0.198,2.338,0.775c-0.245,0.973-2.431,1.214-3.161,1.46
		c-0.73,0.241-1.214,0.487-5.103,0c-3.89-0.487-6.563-1.46-6.563-1.46s-4.62-2.429-6.565-5.835c-1.944-3.402-3.404-5.349-5.833-5.59
		c-2.433-0.241-3.404,0.241-4.134,0C288.369,478.354,288.369,476.166,290.559,476.407"/>
	<path style="fill:#595959;" d="M293.961,472.032c3.402,0.487,5.105-1.946,9.237,1.701c4.134,3.647,6.806,5.835,8.751,5.103
		c1.946-0.728,1.703-2.429,2.674-2.67c0.973-0.245,1.944,4.13,0.487,5.103s-5.592,0.973-8.264-1.46
		c-2.674-2.429-6.322-6.322-9.239-6.322c-2.918,0-5.103-0.241-5.833-0.241C291.044,473.247,292.258,471.787,293.961,472.032z"/>
	<path style="fill:#595959;" d="M298.823,466.197c0.73,0.245,4.132,2.674,9.724,3.161c5.59,0.487,5.835-0.728,5.59,0.487
		c-0.241,1.214-1.699,2.188-4.132,2.429c-2.431,0.245-5.105-1.701-8.021-2.916c-2.918-1.214-3.645-2.429-4.862-2.916
		C295.905,465.956,298.095,465.956,298.823,466.197z"/>
	<path style="fill:#595959;" d="M288.369,455.987c-1.215-1.214-1.944-4.617,0-4.617c1.944,0,2.674,1.456,5.592,3.647
		c2.917,2.188,1.46,3.643,1.214,4.862c-0.241,1.214-2.672,8.264-3.402,10.452c-0.73,2.188-1.701-1.218-1.701-2.919
		C290.072,465.71,288.369,455.987,288.369,455.987z"/>
	<path style="fill:#595959;" d="M300.882,493.367c1.872,2.25,8.245,2.25,10.493,1.125c2.248-1.125,0,3.749-4.122,4.122
		c-4.122,0.374-4.871,0.374-6.746-3.371C298.632,491.495,300.882,493.367,300.882,493.367z"/>
	<path style="fill:#595959;" d="M435.439,397.645c0-3.402,2.429-2.429,4.377,0.486c1.942,2.916-4.862,13.612-6.808,17.992
		c-1.944,4.375-3.404,7.291-5.835,8.75c-2.429,1.456-14.584,18.961-17.501,21.876c-2.918,2.919-3.404,4.862-5.835,5.348
		c-2.429,0.486-0.973,4.862-7.779,6.808c-6.806,1.942-10.21,5.344-11.181,0.483c-0.973-4.858,2.917-5.345,5.835-4.858
		c2.916,0.486,8.264-3.406,9.724-5.348c1.458-1.946,5.833-2.433,5.833-2.433s2.917-5.348,5.348-8.751
		c2.431-3.402,8.264-10.697,8.264-10.697s6.806-8.264,7.293-9.724c0.487-1.456,3.891-6.322,5.348-8.751
		c1.458-2.433,2.918-6.808,2.918-6.808V397.645z"/>
	<path style="fill:#595959;" d="M331.883,446.263c-2.75,2.063,7.777-0.973,10.21,0c2.431,0.973,4.375,1.46,6.806,1.46
		c2.431,0,7.779,0,11.182,1.46c3.406,1.456,7.293,0,12.641,1.456c5.346,1.46,11.182,4.862,13.612,4.862
		c2.431,0,3.404,4.862-1.458,3.889c-4.862-0.969-7.78-4.372-13.126-5.831c-5.348-1.46-21.394-2.92-25.769-3.889
		C341.606,448.696,333.827,444.803,331.883,446.263z"/>
</g>
</svg>
