<!--?xml version="1.0" encoding="utf-8"?-->
<!-- Generator: Adobe Illustrator 24.1.1, SVG Export Plug-In . SVG Version: 6.00 Build 0)  -->
<svg version="1.1" id="_x31_0" xmlns="http://www.w3.org/2000/svg" xmlns:xlink="http://www.w3.org/1999/xlink" x="0px" y="0px" viewBox="0 0 512 512" style="width: 256px; height: 256px; opacity: 1;" xml:space="preserve">
<style type="text/css">
	.st0{fill:#374149;}
</style>
<g>
	<path class="st0" d="M205.926,399.828l-3.371,42.446h-33.851c-8.531,0-15.508,6.976-15.508,15.508v4.171v6.402v0.02l0,0v0.148
		v0.012h205.61v-0.012v-6.57v-4.171c0-8.532-6.977-15.508-15.508-15.508h-33.851l-3.133-39.414l-0.23-3.046h189.926
		c8.824,0,15.992-7.246,15.992-16.066V59.531c0-8.82-7.168-16.066-15.992-16.066H16.07C7.246,43.465,0,50.711,0,59.531v324.215
		c0,8.82,7.246,16.066,16.07,16.066h175.98L205.926,399.828z M483.406,116.996v0.118H29.898l-1.226-0.004V72.133h454.734V116.996z
		 M28.672,122.625h454.734v247.16v1.356H28.672V122.625z" style="fill: rgb(75, 75, 75);"></path>
	<path class="st0" d="M47.734,99.453c3.558,0,6.442-2.886,6.442-6.445c0-3.555-2.883-6.442-6.442-6.442
		c-3.558,0-6.442,2.886-6.442,6.442C41.293,96.566,44.176,99.453,47.734,99.453z" style="fill: rgb(75, 75, 75);"></path>
	<path class="st0" d="M76.922,101.742h355.454c2.93,0,5.301-2.375,5.301-5.301v-6.863c0-2.926-2.371-5.301-5.301-5.301H76.922
		c-2.926,0-5.301,2.374-5.301,5.301v6.863C71.621,99.367,73.996,101.742,76.922,101.742z" style="fill: rgb(75, 75, 75);"></path>
	<polygon class="st0" points="321.367,282.086 321.367,282.086 321.367,281.922 190.695,281.922 190.695,295.199 190.695,295.238 
		190.695,295.238 190.695,295.398 321.367,295.398 321.367,282.125 	" style="fill: rgb(75, 75, 75);"></polygon>
	<path class="st0" d="M293.418,312.578h-74.773c-3.786,0-6.856,3.07-6.856,6.855v14.375c0,3.785,3.07,6.855,6.856,6.855h74.773
		c3.786,0,6.856-3.07,6.856-6.855v-14.375C300.274,315.648,297.203,312.578,293.418,312.578z" style="fill: rgb(75, 75, 75);"></path>
	<path class="st0" d="M256,269.844c32.531,0,58.918-26.465,58.918-58.918c0-32.453-26.386-58.918-58.918-58.918
		c-32.453,0-58.84,26.465-58.84,58.918C197.16,243.379,223.547,269.844,256,269.844z M303.406,216.82
		c-0.262,2.086-0.664,4.126-1.184,6.114c-0.277,1.054-0.578,2.098-0.93,3.129c-0.523,1.543-1.121,3.047-1.793,4.516
		c-0.742,1.609-1.547,3.195-2.481,4.722c-0.402,0.672-0.797,1.347-1.23,1.996c-1.531,2.25-3.226,4.418-5.172,6.422
		c-0.777-1.476-1.706-2.874-2.793-4.042c-5.988-5.828-15.598-7.168-21.82-12.84v-5.672c3.07-1.18,3.703-6.774,4.41-9.293
		c4.726,1.418,6.538-8.664,3.465-11.106c2.836-6.301,1.734-12.606-3.86-16.859c-1.183-0.863-2.836-1.414-3.859-2.363
		c-1.102-1.024-1.652-2.598-2.836-3.622c-2.363-2.046-5.199-2.836-8.27-2.836c-3.938,0-10.633,3.387-14.098,8.035
		c0,0.078,0,0.078,0,0.078c-3.312,4.488-5.515,12.289-2.602,17.566c-3.386,2.836-0.945,11.106,3.543,11.106
		c0.238,2.442,1.656,8.191,4.492,9.293v5.672c-5.828,5.359-14.023,7.172-20.324,11.738c-1.023,0.66-2.586,2.691-4.004,5.062
		c-0.117,0.172-0.23,0.328-0.351,0.508c-0.746-0.774-1.438-1.598-2.133-2.414c-0.559-0.66-1.094-1.328-1.61-2.012
		c-1.352-1.781-2.586-3.648-3.676-5.613c-0.355-0.637-0.687-1.282-1.011-1.93c-1.024-2.055-1.906-4.192-2.626-6.398
		c-0.234-0.719-0.445-1.442-0.644-2.168c-0.598-2.184-1.047-4.426-1.336-6.723c-0.102-0.839-0.18-1.679-0.242-2.527
		c-0.082-1.141-0.168-2.274-0.168-3.434c0-26.309,21.426-47.812,47.734-47.812c26.386,0,47.813,21.503,47.813,47.812
		c0,1.149-0.086,2.278-0.168,3.402C303.586,215.164,303.508,215.996,303.406,216.82z" style="fill: rgb(75, 75, 75);"></path>
	<polygon class="st0" points="451.234,98.008 454.961,101.734 459.961,96.738 464.957,101.734 468.683,98.008 463.687,93.008 
		468.683,88.015 464.957,84.285 459.961,89.282 454.961,84.285 451.348,87.898 451.344,87.898 451.344,87.898 451.234,88.015 
		456.226,93.008 	" style="fill: rgb(75, 75, 75);"></polygon>
</g>
</svg>
