<!--?xml version="1.0" encoding="utf-8"?-->
<!-- Generator: Adobe Illustrator 18.1.1, SVG Export Plug-In . SVG Version: 6.00 Build 0)  -->

<svg version="1.1" id="_x31_0" xmlns="http://www.w3.org/2000/svg" xmlns:xlink="http://www.w3.org/1999/xlink" x="0px" y="0px" viewBox="0 0 512 512" style="width: 256px; height: 256px; opacity: 1;" xml:space="preserve">
<style type="text/css">
	.st0{fill:#374149;}
</style>
<g>
	<path class="st0" d="M465.602,8.002H46.398C20.801,8.002,0,28.799,0,54.479V457.6c0,25.68,20.801,46.398,46.398,46.398h419.203
		c25.598,0,46.398-20.718,46.398-46.398V54.479C512,28.799,491.199,8.002,465.602,8.002z M327.519,58.4
		c0-11.602,9.442-21.039,21.039-21.039c11.524,0,20.961,9.438,20.961,21.039c0,11.519-9.437,20.961-20.961,20.961
		C336.961,79.361,327.519,69.92,327.519,58.4z M397.519,58.4c0-11.602,9.442-21.039,21.039-21.039
		c11.524,0,20.961,9.438,20.961,21.039c0,11.519-9.437,20.961-20.961,20.961C406.961,79.361,397.519,69.92,397.519,58.4z
		 M464,103.998v352H48v-352h414.89H464z" style="fill: rgb(75, 75, 75);"></path>
	<path class="st0" d="M223.629,399.627c-1.758-1.687-3.946-3.062-6.496-4.086c-2.242-0.894-5.082-1.578-8.95-2.153l-8.762-1.242
		c-1.531-0.242-2.652-0.52-3.316-0.79c-0.758-0.355-1.442-0.77-2.141-1.293c-0.394-0.422-0.68-0.882-0.879-1.442
		c-0.214-0.558-0.332-1.187-0.332-1.777c0-1.711,0.637-3.145,1.973-4.481c1.317-1.27,3.602-1.91,6.793-1.91
		c2.106,0,4.497,0.274,7.11,0.825c2.289,0.465,4.286,1.539,6.286,3.374l1.746,1.606l12.02-11.438l0.558-0.523l-0.004-0.004
		l0.117-0.113l-1.914-1.836c-3.375-3.238-7.207-5.578-11.39-6.95c-4.051-1.328-8.809-2-14.153-2c-4.351,0-8.125,0.555-11.539,1.691
		c-3.445,1.149-6.441,2.805-8.902,4.914c-2.461,2.106-4.382,4.672-5.718,7.621c-1.328,2.938-1.973,6.118-1.973,9.723
		c0,6.742,2.039,12.05,6.058,15.781c1.962,1.821,4.157,3.207,6.676,4.226c2.578,1.078,5.61,1.852,8.965,2.294l8.786,1.316
		c1.949,0.262,3.098,0.558,3.664,0.75c0.55,0.195,1.113,0.539,1.594,0.938c0.977,0.934,1.469,2.293,1.469,4.038
		c0,1.969-0.715,3.398-2.211,4.465c-1.718,1.18-4.61,1.805-8.367,1.805c-3.297,0-6.293-0.386-8.914-1.152
		c-2.661-0.758-4.973-2.094-7.07-4.086l-1.758-1.66l-12.437,11.942l-0.395,0.371h0.004l-0.117,0.113l1.894,1.829
		c3.89,3.758,8.262,6.414,12.988,7.898c4.594,1.445,9.871,2.175,15.68,2.175c4.023,0,7.778-0.5,11.523-1.538
		c3.703-1.098,6.801-2.594,9.469-4.578c2.774-2.062,4.954-4.625,6.481-7.602c1.558-2.977,2.347-6.442,2.347-10.289
		c0-3.458-0.473-6.524-1.473-9.45C227.527,404.021,225.817,401.537,223.629,399.627z" style="fill: rgb(75, 75, 75);"></path>
	<path class="st0" d="M288.75,366.584h-43.91c-1.668,0-3.023,1.351-3.023,3.023v64.511c0,1.668,1.355,3.024,3.023,3.024h43.91
		c1.671,0,3.027-1.356,3.027-3.024v-10.382c0-1.672-1.356-3.027-3.027-3.027h-25.539c-1.672,0-3.028-1.356-3.028-3.027v-4.797
		c0-1.672,1.356-3.024,3.028-3.024h20.855c1.672,0,3.027-1.355,3.027-3.027v-10.446c0-1.668-1.355-3.023-3.027-3.023h-20.855
		c-1.672,0-3.028-1.355-3.028-3.027v-4.234c0-1.672,1.356-3.027,3.028-3.027h25.539c1.671,0,3.027-1.356,3.027-3.024v-10.445
		C291.778,367.936,290.422,366.584,288.75,366.584z" style="fill: rgb(75, 75, 75);"></path>
	<path class="st0" d="M305.012,418.971c0.476,2.523,1.297,4.89,2.422,7c1.121,2.172,2.715,4.266,4.73,6.211
		c2.633,2.562,5.782,4.609,9.394,6.098c3.57,1.402,7.664,2.109,12.164,2.109c4.461,0,8.531-0.706,12.157-2.133
		c3.59-1.503,6.699-3.558,9.175-6.038c2.059-1.922,3.684-4.024,4.817-6.219c0.328-0.613,0.465-1.43,0.746-2.094
		c0.356-0.852,0.676-1.742,0.954-2.672c0.238-0.781,0.621-1.41,0.801-2.246c0.484-2.496,0.797-5.14,0.922-7.918
		c0.062-2.703,0.125-5.782,0.125-9.172c0-3.394-0.062-6.473-0.129-9.297c-0.121-2.648-0.43-5.285-0.934-7.926
		c-0.55-2.489-1.382-4.817-2.469-6.918c-1.094-2.121-2.664-4.152-4.789-6.21c-2.691-2.622-5.805-4.649-9.234-6.024
		c-3.426-1.41-7.512-2.125-12.141-2.125c-4.734,0-8.726,0.695-12.164,2.114c-3.434,1.343-6.59,3.367-9.418,6.058
		c-2.106,2.106-3.645,4.129-4.707,6.187c-1.133,2.192-1.946,4.543-2.422,6.997c-0.516,2.722-0.797,5.308-0.856,7.847
		c-0.125,2.766-0.187,5.89-0.187,9.297c0,3.422,0.062,6.527,0.187,9.172C304.215,413.705,304.504,416.369,305.012,418.971z
		 M323.582,393.608c0.113-2.047,0.234-3.84,0.527-5.203c0.195-1.118,0.488-2.114,0.859-2.855c0.274-0.586,0.691-1.164,1.34-1.821
		c0.726-0.809,1.742-1.508,3.066-2.117c1.274-0.559,2.738-0.844,4.347-0.844c0.016,0,0.035,0,0.051,0
		c2.519,0.012,4.942,1.043,6.878,2.649c0.707,0.586,1.199,1.199,1.734,2.316c0.344,0.606,0.61,1.691,0.825,2.672
		c0.25,1.426,0.434,3.379,0.594,5.203c0.121,2.183,0.183,4.973,0.183,8.289c0,3.332-0.062,6.098-0.179,8.153
		c-0.207,2.492-0.387,4.066-0.578,5.164c-0.222,1.035-0.48,2.078-0.942,2.898c-0.316,0.679-0.703,1.238-1.23,1.77
		c-0.89,0.941-1.91,1.679-3.125,2.266c-1.156,0.554-2.492,0.812-4.211,0.812c-1.738,0-3.133-0.266-4.234-0.793
		c-1.343-0.676-2.43-1.442-3.273-2.336c-0.555-0.55-0.973-1.129-1.274-1.778c-0.363-0.722-0.645-1.644-0.856-2.839
		c-0.277-1.286-0.394-3.066-0.503-5.098c-0.126-2.137-0.184-4.902-0.184-8.219C323.398,398.592,323.457,395.807,323.582,393.608z" style="fill: rgb(75, 75, 75);"></path>
	<polygon class="st0" points="313.851,183.021 320.606,183.021 323.742,173.311 326.348,165.643 331.957,183.021 338.711,183.021 
		346.156,156.94 348.278,149.678 348.23,149.678 348.278,149.518 339.676,149.518 337.09,159.346 334.851,167.322 329.371,149.518 
		323.195,149.518 320.172,159.33 317.574,167.311 312.938,149.518 306.289,149.518 304.492,149.475 304.504,149.518 
		304.336,149.518 	" style="fill: rgb(75, 75, 75);"></polygon>
	<polygon class="st0" points="363.062,183.021 369.817,183.021 372.965,173.264 375.558,165.643 381.164,183.021 387.918,183.021 
		395.336,157.045 397.488,149.678 397.442,149.678 397.484,149.518 388.886,149.518 386.309,159.303 384.062,167.322 
		378.578,149.518 372.406,149.518 369.379,159.342 366.785,167.311 362.149,149.518 355.5,149.518 353.699,149.475 353.715,149.518 
		353.547,149.518 	" style="fill: rgb(75, 75, 75);"></polygon>
	<polygon class="st0" points="412.27,183.021 419.027,183.021 422.164,173.299 424.77,165.643 430.375,183.021 437.129,183.021 
		444.554,157.01 446.695,149.678 446.649,149.678 446.695,149.518 438.094,149.518 435.496,159.392 433.274,167.326 
		427.789,149.518 421.614,149.518 418.582,159.357 415.992,167.315 411.355,149.518 404.707,149.518 402.91,149.475 
		402.922,149.518 402.758,149.518 	" style="fill: rgb(75, 75, 75);"></polygon>
	<polygon class="st0" points="425.351,230.33 326.203,230.33 325.836,230.326 325.836,230.33 325.676,230.33 325.676,244.912 
		425.351,244.912 425.351,230.576 425.355,230.49 425.351,230.49 	" style="fill: rgb(75, 75, 75);"></polygon>
	<polygon class="st0" points="425.351,268.185 326.203,268.185 325.836,268.185 325.676,268.185 325.676,282.764 425.351,282.764 
		425.351,268.428 425.355,268.338 425.351,268.338 	" style="fill: rgb(75, 75, 75);"></polygon>
	<polygon class="st0" points="405.145,306.201 405.145,306.197 405.145,306.037 326.141,306.037 325.836,306.033 325.836,306.037 
		325.676,306.037 325.676,320.616 405.145,320.616 405.145,306.244 405.145,306.201 	" style="fill: rgb(75, 75, 75);"></polygon>
	<path class="st0" d="M83.145,288.979c0.609,1.156,1.371,2.203,2.031,3.324c1.274,2.262,2.621,4.617,4.102,7.394v0.004
		c-0.043,0.031-0.086,0.066-0.126,0.098l4.196,5.035c0.937,1.215,1.957,2.359,2.945,3.531l1.754,2.106c0,0,0.011-0.008,0.019-0.012
		c11.172,12.668,25.074,22.711,40.782,29.184c0.308,0.129,0.609,0.266,0.918,0.386c0.527,0.215,1.066,0.406,1.602,0.614
		c12.39,4.793,25.844,7.453,39.906,7.465c36.035,0.023,68.137-17.203,88.48-43.867l3.719-4.492
		c-0.106-0.082-0.215-0.161-0.317-0.246c7.477-10.942,13.07-23.27,16.266-36.531c2-8.309,3.066-16.996,3.07-25.918
		c0.008-8.926-1.042-17.613-3.031-25.926c-2.203-9.207-5.558-17.973-9.898-26.141c-0.61-1.152-1.367-2.195-2.023-3.316
		c-1.282-2.278-2.637-4.649-4.122-7.442l-0.003-0.004c0.042-0.035,0.082-0.066,0.125-0.102l-4.398-5.312
		c-0.29-0.375-0.606-0.719-0.898-1.086l-3.562-4.305c-0.02,0.02-0.039,0.032-0.059,0.047
		c-11.258-12.778-25.289-22.882-41.144-29.351c-0.157-0.063-0.313-0.133-0.469-0.199c-0.672-0.27-1.356-0.52-2.035-0.778
		c-12.29-4.711-25.61-7.32-39.531-7.328c-33.157-0.024-62.965,14.562-83.367,37.652c0,0-0.004-0.004-0.008-0.008l-0.301,0.364
		c-1.422,1.625-2.801,3.285-4.129,4.988l-4.43,5.351c0.11,0.09,0.226,0.172,0.336,0.262c-7.485,10.95-13.078,23.282-16.274,36.547
		c-2.004,8.309-3.066,16.996-3.07,25.918c-0.008,8.926,1.043,17.613,3.031,25.93C75.438,272.029,78.797,280.803,83.145,288.979z
		 M175.398,326.647c-1.547-0.106-3.074-0.262-4.602-0.442c-6.578-6.457-14.648-16.566-21.699-29.195
		c-1.414-2.527-2.762-5.199-4.074-7.926c-0.078-0.188-0.168-0.352-0.246-0.543c9.859-2.348,20.156-3.738,30.664-4.098l-0.031,37.039
		l-0.008,5.054L175.398,326.647z M93.008,253.717c-0.684-3.578-1.066-7.242-1.309-10.954l26.734,0.023
		c0.582,11.418,2.828,22.574,6.187,33.094c0.395,1.242,0.867,2.438,1.297,3.664c-6.202,2.203-12.164,4.793-17.734,7.703
		c-0.316,0.168-0.609,0.347-0.926,0.515c-3.011-4.375-5.679-9.008-7.89-13.898v-0.023C96.481,267.49,94.332,260.74,93.008,253.717z
		 M116.317,175.092c8.667-9.106,19.148-16.469,30.953-21.324c-5.77,7.875-11.313,17.066-15.981,27.234
		c-0.023,0.05-0.042,0.106-0.066,0.156l-0.406,0.176c-0.059-0.019-0.114-0.039-0.172-0.058c-4.305-1.492-8.418-3.286-12.398-5.223
		C117.602,175.717,116.957,175.452,116.317,175.092z M175.481,231.088l-40.77-0.031l-2.145-0.007
		c0.672-11.531,3.199-22.531,6.809-32.664c0.285,0.074,0.57,0.164,0.855,0.234c11.313,2.762,23.102,4.36,35.023,4.742
		c0.082,0.004,0.164,0.004,0.246,0.004l-0.019,27.594V231.088z M175.218,270.545h-0.007c-11.989,0.386-23.778,2-35.012,4.781
		c-0.293,0.07-0.566,0.157-0.855,0.23c-3.614-10.152-6.133-21.191-6.786-32.762l42.914,0.031l-0.008,11.262L175.218,270.545z
		 M175.512,188.029l-0.008,1.434c-9.242-0.309-18.324-1.554-27.16-3.414c-1.172-0.266-2.363-0.395-3.531-0.688
		c1.402-2.934,2.859-5.785,4.374-8.504c7.07-12.617,15.157-22.714,21.742-29.164c1.527-0.175,3.062-0.332,4.614-0.434
		L175.512,188.029z M108.199,186.651c5.594,2.961,11.586,5.558,17.778,7.71c-0.418,1.199-0.883,2.371-1.274,3.586
		c-3.394,10.511-5.66,21.664-6.262,33.098l-25.078-0.02l-1.652-0.004c0.246-3.71,0.637-7.378,1.324-10.953
		c1.332-7.027,3.488-13.746,6.386-20.098v-0.019c2.203-4.86,4.863-9.462,7.856-13.813
		C107.59,186.307,107.886,186.486,108.199,186.651z M116.317,298.752c4.523-2.278,9.297-4.36,14.289-6.13
		c0.145-0.05,0.301-0.094,0.445-0.144c0.055,0.117,0.102,0.242,0.157,0.363c3.762,8.242,8.121,15.809,12.703,22.598
		c0.582,0.879,1.183,1.742,1.773,2.617c0.379,0.618,0.782,1.199,1.126,1.867c-10.344-4.316-19.586-10.637-27.539-18.289
		C118.289,300.666,117.262,299.776,116.317,298.752z M223.309,275.56c-0.286-0.074-0.558-0.16-0.848-0.23
		c-11.254-2.785-23.05-4.394-35.039-4.785c-0.078,0-0.156,0-0.23-0.004l0.02-27.703l40.527,0.027l2.386,0.008
		C229.457,254.412,226.926,265.428,223.309,275.56z M217.871,288.58c-1.398,2.934-2.852,5.777-4.367,8.476
		c-7.054,12.622-15.137,22.715-21.719,29.164c-1.523,0.176-3.046,0.329-4.59,0.43c-0.015,0-0.031,0-0.046,0l0.031-42.207
		c10.206,0.347,20.203,1.71,29.82,3.942C217.289,288.455,217.582,288.506,217.871,288.58z M215.652,319.834
		c5.688-7.809,11.153-16.886,15.75-26.918c0.062-0.145,0.121-0.298,0.183-0.438c0.141,0.046,0.294,0.086,0.434,0.137
		c4.454,1.578,8.547,3.374,12.442,5.273c0.641,0.332,1.293,0.606,1.93,0.958c-6.293,6.574-13.531,12.23-21.542,16.679
		c-2.543,1.398-5.184,2.637-7.871,3.801C216.535,319.486,216.094,319.697,215.652,319.834z M254.523,287.299
		c-5.367-2.859-11.347-5.461-17.785-7.75c0.418-1.192,0.882-2.352,1.274-3.559c3.374-10.515,5.64-21.671,6.234-33.113l24.988,0.019
		l1.746,0.008c-0.246,3.703-0.637,7.367-1.325,10.942c-1.332,7.027-3.492,13.77-6.343,20.117c-2.215,4.871-4.887,9.473-7.898,13.824
		C255.114,287.631,254.824,287.455,254.523,287.299z M217.914,185.396c-9.551,2.242-19.465,3.558-29.52,3.973
		c-0.382,0.012-0.758,0.078-1.144,0.082l0.031-42.184c1.554,0.106,3.09,0.262,4.621,0.442c6.578,6.457,14.652,16.562,21.691,29.195
		c1.414,2.543,2.766,5.218,4.078,7.953C217.75,185.041,217.836,185.209,217.914,185.396z M187.457,203.365h0.008
		c2.11-0.07,4.18-0.382,6.282-0.523c1.706-0.122,3.414-0.262,5.117-0.43c4.367-0.43,8.676-1.024,12.957-1.782
		c1.41-0.246,2.817-0.512,4.223-0.797c2.137-0.434,4.332-0.699,6.441-1.215c0.29-0.07,0.578-0.164,0.867-0.234
		c3.524,9.937,6.004,20.714,6.723,32c0.011,0.246,0.042,0.496,0.054,0.742l-42.878-0.031h-0.032l0.008-11.812L187.457,203.365z
		 M270.977,231.158l-26.719-0.019c-0.582-11.442-2.832-22.614-6.21-33.133c-0.395-1.234-0.867-2.422-1.294-3.641
		c6.414-2.278,12.391-4.871,17.715-7.695c0.328-0.168,0.641-0.359,0.965-0.531c3.031,4.394,5.711,9.046,7.934,13.957
		c2.844,6.352,4.992,13.078,6.313,20.102c0.66,3.461,1.031,7.023,1.273,10.606C270.957,230.936,270.973,231.029,270.977,231.158z
		 M246.398,175.182c-4.375,2.218-9.176,4.277-14.328,6.105c-0.062,0.024-0.125,0.043-0.191,0.063l-0.332-0.126
		c-0.02-0.05-0.043-0.102-0.063-0.148c-4.648-10.172-10.183-19.375-15.937-27.258c10.492,4.335,19.863,10.742,27.918,18.503
		C244.442,173.284,245.461,174.166,246.398,175.182z" style="fill: rgb(75, 75, 75);"></path>
</g>
</svg>
