<svg xmlns="http://www.w3.org/2000/svg" width="120" height="120" viewBox="0 0 120 120"><path d="M0,0H120V120H0Z" fill="#ebd26b"/><path d="M67.311,161.668l8.97-5.428c1.73,3.068,3.3,5.664,7.081,5.664,3.619,0,5.9-1.416,5.9-6.923V117.529h11.015v37.608c0,11.409-6.688,16.6-16.445,16.6-8.811,0-13.926-4.564-16.523-10.071" transform="translate(-35.472 -60.93)" fill="#222"/><path d="M152.381,159.742l8.969-5.193c2.361,3.856,5.43,6.688,10.858,6.688,4.564,0,7.475-2.282,7.475-5.429,0-3.776-2.99-5.114-8.025-7.317l-2.753-1.181c-7.947-3.383-13.219-7.632-13.219-16.6,0-8.262,6.295-14.556,16.13-14.556,7,0,12.038,2.439,15.657,8.812l-8.576,5.508c-1.889-3.383-3.933-4.721-7.081-4.721-3.226,0-5.272,2.046-5.272,4.721,0,3.3,2.046,4.642,6.766,6.688l2.754,1.18c9.363,4.013,14.635,8.1,14.635,17.309,0,9.915-7.789,15.343-18.254,15.343-10.228,0-16.837-4.878-20.063-11.252" transform="translate(-79.824 -60.184)" fill="#222"/></svg>